<?xml version="1.0" standalone="no"?>
 <!DOCTYPE svg PUBLIC "-//W3C//DTD SVG 1.1//EN" 
 "http://www.w3.org/Graphics/SVG/1.1/DTD/svg11.dtd"> 
<svg
  xmlns:svg="http://www.w3.org/2000/svg"
  xmlns="http://www.w3.org/2000/svg"
  xmlns:xlink="http://www.w3.org/1999/xlink"
  version="1.1"
  width="25.001220cm" height="9.999980cm" viewBox="0 0 98430 39370">
<title>SVG Picture created as a.svg date 2022/02/21 14:29:16 </title>
  <desc>Picture generated by Eeschema-SVG </desc>
<g style="fill:#000000; fill-opacity:1.000000;stroke:#000000; stroke-opacity:1.000000;
stroke-linecap:round; stroke-linejoin:round;"
 transform="translate(0 0) scale(1 1)">
</g>
<g style="fill:#212121; fill-opacity:0.0; 
stroke:#212121; stroke-width:0.000000; stroke-opacity:1; 
stroke-linecap:round; stroke-linejoin:round;">
</g>
<g style="fill:#212121; fill-opacity:1.0; 
stroke:#212121; stroke-width:0.039370; stroke-opacity:1; 
stroke-linecap:round; stroke-linejoin:round;">
<rect x="0.000000" y="0.000000" width="98430.000000" height="39370.000000" rx="0.000000" />
</g>
<g style="fill:#212121; fill-opacity:1.0; 
stroke:#212121; stroke-width:60.000000; stroke-opacity:1; 
stroke-linecap:round; stroke-linejoin:round;">
<g >
</g>
<g style="fill:#C00000; fill-opacity:1.0; 
stroke:#C00000; stroke-width:60.000000; stroke-opacity:1; 
stroke-linecap:round; stroke-linejoin:round;">
</g>
<g style="fill:#2C2C2C; fill-opacity:1.0; 
stroke:#2C2C2C; stroke-width:60.000000; stroke-opacity:1; 
stroke-linecap:round; stroke-linejoin:round;">
</g>
<g style="fill:#2C2C2C; fill-opacity:0.6; 
stroke:#2C2C2C; stroke-width:0.039370; stroke-opacity:1; 
stroke-linecap:round; stroke-linejoin:round;">
<rect x="52500.000000" y="20000.000000" width="20500.000000" height="5000.000000" rx="0.000000" />
</g>
<g style="fill:#C00000; fill-opacity:0.6; 
stroke:#C00000; stroke-width:0.039370; stroke-opacity:1; 
stroke-linecap:round; stroke-linejoin:round;">
</g>
<g style="fill:#C00000; fill-opacity:0.0; 
stroke:#C00000; stroke-width:60.000000; stroke-opacity:1; 
stroke-linecap:round; stroke-linejoin:round;">
<rect x="52500.000000" y="20000.000000" width="20500.000000" height="5000.000000" rx="0.000000" />
<rect x="52500.000000" y="20000.000000" width="20500.000000" height="5000.000000" rx="0.000000" />
<path d="M73000 21500
L74000 21500
" />
</g>
<g style="fill:#C0C0C0; fill-opacity:0.0; 
stroke:#C0C0C0; stroke-width:60.000000; stroke-opacity:1; 
stroke-linecap:round; stroke-linejoin:round;">
<text x="72800.000000" y="21750.000000"
textLength="1583.818898" font-size="666.653543" lengthAdjust="spacingAndGlyphs"
text-anchor="end" opacity="0">GND</text>
<g class="stroked-text"><desc>GND</desc>
<path d="M71627 21250
L71579 21226
L71508 21226
L71436 21250
L71389 21297
L71365 21345
L71341 21440
L71341 21511
L71365 21607
L71389 21654
L71436 21702
L71508 21726
L71555 21726
L71627 21702
L71650 21678
L71650 21511
L71555 21511
" />
<path d="M71865 21726
L71865 21226
L72150 21726
L72150 21226
" />
<path d="M72389 21726
L72389 21226
L72508 21226
L72579 21250
L72627 21297
L72650 21345
L72674 21440
L72674 21511
L72650 21607
L72627 21654
L72579 21702
L72508 21726
L72389 21726
" />
</g></g>
<g style="fill:#C00000; fill-opacity:0.0; 
stroke:#C00000; stroke-width:60.000000; stroke-opacity:1; 
stroke-linecap:round; stroke-linejoin:round;">
<text x="73500.000000" y="21400.000000"
textLength="536.181102" font-size="666.653543" lengthAdjust="spacingAndGlyphs"
text-anchor="middle" opacity="0">1</text>
<g class="stroked-text"><desc>1</desc>
<path d="M73642 21376
L73357 21376
" />
<path d="M73500 21376
L73500 20876
L73452 20947
L73404 20995
L73357 21019
" />
</g><path d="M73000 23500
L74000 23500
" />
</g>
<g style="fill:#C0C0C0; fill-opacity:0.0; 
stroke:#C0C0C0; stroke-width:60.000000; stroke-opacity:1; 
stroke-linecap:round; stroke-linejoin:round;">
<text x="72800.000000" y="23750.000000"
textLength="1440.944882" font-size="666.653543" lengthAdjust="spacingAndGlyphs"
text-anchor="end" opacity="0">12V</text>
<g class="stroked-text"><desc>12V</desc>
<path d="M71770 23726
L71484 23726
" />
<path d="M71627 23726
L71627 23226
L71579 23297
L71531 23345
L71484 23369
" />
<path d="M71960 23273
L71984 23250
L72031 23226
L72150 23226
L72198 23250
L72222 23273
L72246 23321
L72246 23369
L72222 23440
L71936 23726
L72246 23726
" />
<path d="M72389 23226
L72555 23726
L72722 23226
" />
</g></g>
<g style="fill:#C00000; fill-opacity:0.0; 
stroke:#C00000; stroke-width:60.000000; stroke-opacity:1; 
stroke-linecap:round; stroke-linejoin:round;">
<text x="73500.000000" y="23400.000000"
textLength="536.181102" font-size="666.653543" lengthAdjust="spacingAndGlyphs"
text-anchor="middle" opacity="0">2</text>
<g class="stroked-text"><desc>2</desc>
<path d="M73357 22923
L73380 22900
L73428 22876
L73547 22876
L73595 22900
L73619 22923
L73642 22971
L73642 23019
L73619 23090
L73333 23376
L73642 23376
" />
</g></g>
<g style="fill:#C0C0C0; fill-opacity:0.0; 
stroke:#C0C0C0; stroke-width:60.000000; stroke-opacity:1; 
stroke-linecap:round; stroke-linejoin:round;">
<text x="62500.000000" y="22750.000000"
textLength="1821.889764" font-size="666.653543" lengthAdjust="spacingAndGlyphs"
text-anchor="middle" opacity="0">LEDs</text>
<g class="stroked-text"><desc>LEDs</desc>
<path d="M61976 22726
L61738 22726
L61738 22226
" />
<path d="M62142 22464
L62309 22464
" />
<path d="M62380 22726
L62142 22726
L62142 22226
L62380 22226
" />
<path d="M62595 22726
L62595 22226
L62714 22226
L62785 22250
L62833 22297
L62857 22345
L62880 22440
L62880 22511
L62857 22607
L62833 22654
L62785 22702
L62714 22726
L62595 22726
" />
<path d="M63071 22702
L63119 22726
L63214 22726
L63261 22702
L63285 22654
L63285 22630
L63261 22583
L63214 22559
L63142 22559
L63095 22535
L63071 22488
L63071 22464
L63095 22416
L63142 22392
L63214 22392
L63261 22416
" />
</g></g>
</g>
<g style="fill:#C0C0C0; fill-opacity:0.0; 
stroke:#C0C0C0; stroke-width:60.000000; stroke-opacity:1; 
stroke-linecap:round; stroke-linejoin:round;">
<g >
</g>
<g style="fill:#C00000; fill-opacity:0.0; 
stroke:#C00000; stroke-width:60.000000; stroke-opacity:1; 
stroke-linecap:round; stroke-linejoin:round;">
<path style="fill:#C00000; fill-opacity:0.0; 
stroke:#C00000; stroke-width:60.000000; stroke-opacity:1; 
stroke-linecap:round; stroke-linejoin:round;fill:none"
d="M 55800.000000,14000.000000
55500.000000,14500.000000
" /> 
<path style="fill:#C00000; fill-opacity:0.0; 
stroke:#C00000; stroke-width:60.000000; stroke-opacity:1; 
stroke-linecap:round; stroke-linejoin:round;fill:none"
d="M 55500.000000,13500.000000
55500.000000,14500.000000
" /> 
<path style="fill:#C00000; fill-opacity:0.0; 
stroke:#C00000; stroke-width:60.000000; stroke-opacity:1; 
stroke-linecap:round; stroke-linejoin:round;fill:none"
d="M 55500.000000,14500.000000
55200.000000,14000.000000
" /> 
</g>
<g style="fill:#C0C0C0; fill-opacity:0.0; 
stroke:#C0C0C0; stroke-width:60.000000; stroke-opacity:1; 
stroke-linecap:round; stroke-linejoin:round;">
<text x="55499.960630" y="15749.960630"
textLength="1583.818898" font-size="666.653543" lengthAdjust="spacingAndGlyphs"
text-anchor="middle" opacity="0">+5V</text>
<g class="stroked-text"><desc>+5V</desc>
<path d="M54857 15535
L55238 15535
" />
<path d="M55047 15726
L55047 15345
" />
<path d="M55714 15226
L55476 15226
L55452 15464
L55476 15440
L55523 15416
L55642 15416
L55690 15440
L55714 15464
L55738 15511
L55738 15630
L55714 15678
L55690 15702
L55642 15726
L55523 15726
L55476 15702
L55452 15678
" />
<path d="M55880 15226
L56047 15726
L56214 15226
" />
</g></g>
</g>
<g style="fill:#C0C0C0; fill-opacity:0.0; 
stroke:#C0C0C0; stroke-width:60.000000; stroke-opacity:1; 
stroke-linecap:round; stroke-linejoin:round;">
<g >
</g>
<g style="fill:#C00000; fill-opacity:0.0; 
stroke:#C00000; stroke-width:60.000000; stroke-opacity:1; 
stroke-linecap:round; stroke-linejoin:round;">
<path style="fill:#C00000; fill-opacity:0.0; 
stroke:#C00000; stroke-width:60.000000; stroke-opacity:1; 
stroke-linecap:round; stroke-linejoin:round;fill:none"
d="M 81250.000000,21750.000000
81750.000000,21750.000000
" /> 
<path style="fill:#C00000; fill-opacity:0.0; 
stroke:#C00000; stroke-width:60.000000; stroke-opacity:1; 
stroke-linecap:round; stroke-linejoin:round;fill:none"
d="M 81450.000000,22000.000000
81550.000000,22000.000000
" /> 
<path style="fill:#C00000; fill-opacity:0.0; 
stroke:#C00000; stroke-width:60.000000; stroke-opacity:1; 
stroke-linecap:round; stroke-linejoin:round;fill:none"
d="M 81500.000000,21500.000000
81500.000000,21000.000000
" /> 
<path style="fill:#C00000; fill-opacity:0.0; 
stroke:#C00000; stroke-width:60.000000; stroke-opacity:1; 
stroke-linecap:round; stroke-linejoin:round;fill:none"
d="M 82000.000000,21500.000000
81000.000000,21500.000000
" /> 
</g>
</g>
<g style="fill:#C00000; fill-opacity:0.0; 
stroke:#C00000; stroke-width:60.000000; stroke-opacity:1; 
stroke-linecap:round; stroke-linejoin:round;">
<g >
<path style="fill:#C00000; fill-opacity:0.0; 
stroke:#C00000; stroke-width:60.000000; stroke-opacity:1; 
stroke-linecap:round; stroke-linejoin:round;fill:none"
d="M 80600.000000,18000.000000
79500.000000,18000.000000
" /> 
</g>
<g style="fill:#C00000; fill-opacity:0.0; 
stroke:#C00000; stroke-width:100.000000; stroke-opacity:1; 
stroke-linecap:round; stroke-linejoin:round;">
<path style="fill:#C00000; fill-opacity:0.0; 
stroke:#C00000; stroke-width:100.000000; stroke-opacity:1; 
stroke-linecap:round; stroke-linejoin:round;fill:none"
d="M 80600.000000,17250.000000
80600.000000,18750.000000
" /> 
<path style="fill:#C00000; fill-opacity:0.0; 
stroke:#C00000; stroke-width:100.000000; stroke-opacity:1; 
stroke-linecap:round; stroke-linejoin:round;fill:none"
d="M 80800.000000,18500.000000
80800.000000,18900.000000
" /> 
<path style="fill:#C00000; fill-opacity:0.0; 
stroke:#C00000; stroke-width:100.000000; stroke-opacity:1; 
stroke-linecap:round; stroke-linejoin:round;fill:none"
d="M 80800.000000,17800.000000
80800.000000,18200.000000
" /> 
<path style="fill:#C00000; fill-opacity:0.0; 
stroke:#C00000; stroke-width:100.000000; stroke-opacity:1; 
stroke-linecap:round; stroke-linejoin:round;fill:none"
d="M 80800.000000,17100.000000
80800.000000,17500.000000
" /> 
</g>
<g style="fill:#C00000; fill-opacity:0.0; 
stroke:#C00000; stroke-width:60.000000; stroke-opacity:1; 
stroke-linecap:round; stroke-linejoin:round;">
<path style="fill:#C00000; fill-opacity:0.0; 
stroke:#C00000; stroke-width:60.000000; stroke-opacity:1; 
stroke-linecap:round; stroke-linejoin:round;fill:none"
d="M 81500.000000,17000.000000
81500.000000,17300.000000
" /> 
<path style="fill:#C00000; fill-opacity:0.0; 
stroke:#C00000; stroke-width:60.000000; stroke-opacity:1; 
stroke-linecap:round; stroke-linejoin:round;fill:none"
d="M 81500.000000,19000.000000
81500.000000,18000.000000
80800.000000,18000.000000
" /> 
<path style="fill:#C00000; fill-opacity:0.0; 
stroke:#C00000; stroke-width:60.000000; stroke-opacity:1; 
stroke-linecap:round; stroke-linejoin:round;fill:none"
d="M 80800.000000,18700.000000
81800.000000,18700.000000
81800.000000,17300.000000
80800.000000,17300.000000
" /> 
</g>
<g style="fill:#C00000; fill-opacity:1.0; 
stroke:#C00000; stroke-width:60.000000; stroke-opacity:1; 
stroke-linecap:round; stroke-linejoin:round;">
<path style="fill:#C00000; fill-opacity:1.0; 
stroke:#C00000; stroke-width:60.000000; stroke-opacity:1; 
stroke-linecap:round; stroke-linejoin:round;fill-rule:evenodd;"
d="M 80900.000000,18000.000000
81300.000000,17850.000000
81300.000000,18150.000000
Z" /> 
</g>
<g style="fill:#C00000; fill-opacity:0.0; 
stroke:#C00000; stroke-width:60.000000; stroke-opacity:1; 
stroke-linecap:round; stroke-linejoin:round;">
<path style="fill:#C00000; fill-opacity:0.0; 
stroke:#C00000; stroke-width:60.000000; stroke-opacity:1; 
stroke-linecap:round; stroke-linejoin:round;fill:none"
d="M 81600.000000,17800.000000
81650.000000,17850.000000
81950.000000,17850.000000
82000.000000,17900.000000
" /> 
<path style="fill:#C00000; fill-opacity:0.0; 
stroke:#C00000; stroke-width:60.000000; stroke-opacity:1; 
stroke-linecap:round; stroke-linejoin:round;fill:none"
d="M 81800.000000,17850.000000
81650.000000,18100.000000
81950.000000,18100.000000
Z" /> 
</g>
<g style="fill:#C00000; fill-opacity:0.0; 
stroke:#C00000; stroke-width:100.000000; stroke-opacity:1; 
stroke-linecap:round; stroke-linejoin:round;">
<circle cx="81150.000000" cy="18000.000000" r="1100.000000" /> 
</g>
<g style="fill:#C00000; fill-opacity:1.0; 
stroke:#C00000; stroke-width:60.000000; stroke-opacity:1; 
stroke-linecap:round; stroke-linejoin:round;">
<circle cx="81500.000000" cy="18700.000000" r="100.000000" /> 
<circle cx="81500.000000" cy="17300.000000" r="100.000000" /> 
</g>
<g style="fill:#C00000; fill-opacity:0.0; 
stroke:#C00000; stroke-width:60.000000; stroke-opacity:1; 
stroke-linecap:round; stroke-linejoin:round;">
<path d="M79500 18000
L78500 18000
" />
<text x="79000.000000" y="17900.000000"
textLength="536.181102" font-size="666.653543" lengthAdjust="spacingAndGlyphs"
text-anchor="middle" opacity="0">1</text>
<g class="stroked-text"><desc>1</desc>
<path d="M79142 17876
L78857 17876
" />
<path d="M79000 17876
L79000 17376
L78952 17447
L78904 17495
L78857 17519
" />
</g><path d="M81500 19000
L81500 20000
" />
<g transform="rotate(-90.000000 81400.000000 19500.000000)">
<text x="81400.000000" y="19500.000000"
textLength="536.181102" font-size="666.653543" lengthAdjust="spacingAndGlyphs"
text-anchor="middle" opacity="0">2</text>
</g>
<g class="stroked-text"><desc>2</desc>
<path d="M80923 19642
L80900 19619
L80876 19571
L80876 19452
L80900 19404
L80923 19380
L80971 19357
L81019 19357
L81090 19380
L81376 19666
L81376 19357
" />
</g><path d="M81500 17000
L81500 16000
" />
<g transform="rotate(-90.000000 81400.000000 16500.000000)">
<text x="81400.000000" y="16500.000000"
textLength="536.181102" font-size="666.653543" lengthAdjust="spacingAndGlyphs"
text-anchor="middle" opacity="0">3</text>
</g>
<g class="stroked-text"><desc>3</desc>
<path d="M80876 16666
L80876 16357
L81066 16523
L81066 16452
L81090 16404
L81114 16380
L81161 16357
L81280 16357
L81328 16380
L81352 16404
L81376 16452
L81376 16595
L81352 16642
L81328 16666
" />
</g></g>
<g style="fill:#C0C0C0; fill-opacity:0.0; 
stroke:#C0C0C0; stroke-width:60.000000; stroke-opacity:1; 
stroke-linecap:round; stroke-linejoin:round;">
<text x="83531.259843" y="17749.960630"
textLength="1060.000000" font-size="666.653543" lengthAdjust="spacingAndGlyphs"
text-anchor="middle" opacity="0">Q1</text>
<g class="stroked-text"><desc>Q1</desc>
<path d="M83483 17773
L83435 17749
L83388 17702
L83316 17630
L83269 17607
L83221 17607
" />
<path d="M83245 17726
L83197 17702
L83150 17654
L83126 17559
L83126 17392
L83150 17297
L83197 17249
L83245 17226
L83340 17226
L83388 17249
L83435 17297
L83459 17392
L83459 17559
L83435 17654
L83388 17702
L83340 17726
L83245 17726
" />
<path d="M83935 17726
L83650 17726
" />
<path d="M83793 17726
L83793 17226
L83745 17297
L83697 17345
L83650 17368
" />
</g><text x="84447.913386" y="18749.960630"
textLength="2893.346457" font-size="666.653543" lengthAdjust="spacingAndGlyphs"
text-anchor="middle" opacity="0">MOSFET</text>
<g class="stroked-text"><desc>MOSFET</desc>
<path d="M83150 18726
L83150 18226
L83316 18583
L83483 18226
L83483 18726
" />
<path d="M83816 18226
L83912 18226
L83959 18249
L84007 18297
L84031 18392
L84031 18559
L84007 18654
L83959 18702
L83912 18726
L83816 18726
L83769 18702
L83721 18654
L83697 18559
L83697 18392
L83721 18297
L83769 18249
L83816 18226
" />
<path d="M84221 18702
L84293 18726
L84412 18726
L84459 18702
L84483 18678
L84507 18630
L84507 18583
L84483 18535
L84459 18511
L84412 18488
L84316 18464
L84269 18440
L84245 18416
L84221 18368
L84221 18321
L84245 18273
L84269 18249
L84316 18226
L84435 18226
L84507 18249
" />
<path d="M84888 18464
L84721 18464
" />
<path d="M84721 18726
L84721 18226
L84959 18226
" />
<path d="M85150 18464
L85316 18464
" />
<path d="M85388 18726
L85150 18726
L85150 18226
L85388 18226
" />
<path d="M85531 18226
L85816 18226
" />
<path d="M85674 18726
L85674 18226
" />
</g></g>
</g>
<g style="fill:#C0C0C0; fill-opacity:0.0; 
stroke:#C0C0C0; stroke-width:60.000000; stroke-opacity:1; 
stroke-linecap:round; stroke-linejoin:round;">
<g >
</g>
<g style="fill:#C00000; fill-opacity:0.0; 
stroke:#C00000; stroke-width:60.000000; stroke-opacity:1; 
stroke-linecap:round; stroke-linejoin:round;">
<path style="fill:#C00000; fill-opacity:0.0; 
stroke:#C00000; stroke-width:60.000000; stroke-opacity:1; 
stroke-linecap:round; stroke-linejoin:round;fill:none"
d="M 75500.000000,23200.000000
76000.000000,23500.000000
" /> 
<path style="fill:#C00000; fill-opacity:0.0; 
stroke:#C00000; stroke-width:60.000000; stroke-opacity:1; 
stroke-linecap:round; stroke-linejoin:round;fill:none"
d="M 75000.000000,23500.000000
76000.000000,23500.000000
" /> 
<path style="fill:#C00000; fill-opacity:0.0; 
stroke:#C00000; stroke-width:60.000000; stroke-opacity:1; 
stroke-linecap:round; stroke-linejoin:round;fill:none"
d="M 76000.000000,23500.000000
75500.000000,23800.000000
" /> 
</g>
<g style="fill:#C0C0C0; fill-opacity:0.0; 
stroke:#C0C0C0; stroke-width:60.000000; stroke-opacity:1; 
stroke-linecap:round; stroke-linejoin:round;">
<text x="77531.259843" y="23749.960630"
textLength="2060.000000" font-size="666.653543" lengthAdjust="spacingAndGlyphs"
text-anchor="middle" opacity="0">+12V</text>
<g class="stroked-text"><desc>+12V</desc>
<path d="M76650 23535
L77031 23535
" />
<path d="M76840 23726
L76840 23345
" />
<path d="M77531 23726
L77245 23726
" />
<path d="M77388 23726
L77388 23226
L77340 23297
L77293 23345
L77245 23368
" />
<path d="M77721 23273
L77745 23249
L77793 23226
L77912 23226
L77959 23249
L77983 23273
L78007 23321
L78007 23368
L77983 23440
L77697 23726
L78007 23726
" />
<path d="M78150 23226
L78316 23726
L78483 23226
" />
</g></g>
</g>
<g style="fill:#C0C0C0; fill-opacity:0.0; 
stroke:#C0C0C0; stroke-width:60.000000; stroke-opacity:1; 
stroke-linecap:round; stroke-linejoin:round;">
<g >
</g>
<g style="fill:#C00000; fill-opacity:0.0; 
stroke:#C00000; stroke-width:60.000000; stroke-opacity:1; 
stroke-linecap:round; stroke-linejoin:round;">
</g>
<g style="fill:#2C2C2C; fill-opacity:0.0; 
stroke:#2C2C2C; stroke-width:60.000000; stroke-opacity:1; 
stroke-linecap:round; stroke-linejoin:round;">
</g>
<g style="fill:#2C2C2C; fill-opacity:0.6; 
stroke:#2C2C2C; stroke-width:0.039370; stroke-opacity:1; 
stroke-linecap:round; stroke-linejoin:round;">
<rect x="52000.000000" y="5500.000000" width="7000.000000" height="5500.000000" rx="0.000000" />
</g>
<g style="fill:#C00000; fill-opacity:0.6; 
stroke:#C00000; stroke-width:0.039370; stroke-opacity:1; 
stroke-linecap:round; stroke-linejoin:round;">
</g>
<g style="fill:#C00000; fill-opacity:0.0; 
stroke:#C00000; stroke-width:60.000000; stroke-opacity:1; 
stroke-linecap:round; stroke-linejoin:round;">
<rect x="52000.000000" y="5500.000000" width="7000.000000" height="5500.000000" rx="0.000000" />
<rect x="52000.000000" y="5500.000000" width="7000.000000" height="5500.000000" rx="0.000000" />
<path d="M53000 11000
L53000 12000
" />
</g>
<g style="fill:#C0C0C0; fill-opacity:0.0; 
stroke:#C0C0C0; stroke-width:60.000000; stroke-opacity:1; 
stroke-linecap:round; stroke-linejoin:round;">
<g transform="rotate(-90.000000 53000.000000 10800.000000)">
<text x="53000.000000" y="11050.000000"
textLength="1583.818898" font-size="666.653543" lengthAdjust="spacingAndGlyphs"
text-anchor="start" opacity="0">GND</text>
</g>
<g class="stroked-text"><desc>GND</desc>
<path d="M52750 10389
L52726 10436
L52726 10508
L52750 10579
L52797 10627
L52845 10650
L52940 10674
L53011 10674
L53107 10650
L53154 10627
L53202 10579
L53226 10508
L53226 10460
L53202 10389
L53178 10365
L53011 10365
L53011 10460
" />
<path d="M53226 10150
L52726 10150
L53226 9865
L52726 9865
" />
<path d="M53226 9627
L52726 9627
L52726 9508
L52750 9436
L52797 9389
L52845 9365
L52940 9341
L53011 9341
L53107 9365
L53154 9389
L53202 9436
L53226 9508
L53226 9627
" />
</g></g>
<g style="fill:#C00000; fill-opacity:0.0; 
stroke:#C00000; stroke-width:60.000000; stroke-opacity:1; 
stroke-linecap:round; stroke-linejoin:round;">
<g transform="rotate(-90.000000 52900.000000 11500.000000)">
<text x="52900.000000" y="11500.000000"
textLength="536.181102" font-size="666.653543" lengthAdjust="spacingAndGlyphs"
text-anchor="middle" opacity="0">1</text>
</g>
<g class="stroked-text"><desc>1</desc>
<path d="M52876 11357
L52876 11642
" />
<path d="M52876 11500
L52376 11500
L52447 11547
L52495 11595
L52519 11642
" />
</g><path d="M55500 11000
L55500 12000
" />
</g>
<g style="fill:#C0C0C0; fill-opacity:0.0; 
stroke:#C0C0C0; stroke-width:60.000000; stroke-opacity:1; 
stroke-linecap:round; stroke-linejoin:round;">
<g transform="rotate(-90.000000 55500.000000 10800.000000)">
<text x="55500.000000" y="11050.000000"
textLength="1488.582677" font-size="666.653543" lengthAdjust="spacingAndGlyphs"
text-anchor="start" opacity="0">VCC</text>
</g>
<g class="stroked-text"><desc>VCC</desc>
<path d="M55226 10722
L55726 10555
L55226 10389
" />
<path d="M55678 9936
L55702 9960
L55726 10031
L55726 10079
L55702 10150
L55654 10198
L55607 10222
L55511 10246
L55440 10246
L55345 10222
L55297 10198
L55250 10150
L55226 10079
L55226 10031
L55250 9960
L55273 9936
" />
<path d="M55678 9436
L55702 9460
L55726 9531
L55726 9579
L55702 9650
L55654 9698
L55607 9722
L55511 9746
L55440 9746
L55345 9722
L55297 9698
L55250 9650
L55226 9579
L55226 9531
L55250 9460
L55273 9436
" />
</g></g>
<g style="fill:#C00000; fill-opacity:0.0; 
stroke:#C00000; stroke-width:60.000000; stroke-opacity:1; 
stroke-linecap:round; stroke-linejoin:round;">
<g transform="rotate(-90.000000 55400.000000 11500.000000)">
<text x="55400.000000" y="11500.000000"
textLength="536.181102" font-size="666.653543" lengthAdjust="spacingAndGlyphs"
text-anchor="middle" opacity="0">2</text>
</g>
<g class="stroked-text"><desc>2</desc>
<path d="M54923 11642
L54900 11619
L54876 11571
L54876 11452
L54900 11404
L54923 11380
L54971 11357
L55019 11357
L55090 11380
L55376 11666
L55376 11357
" />
</g><path d="M58000 11000
L58000 12000
" />
</g>
<g style="fill:#C0C0C0; fill-opacity:0.0; 
stroke:#C0C0C0; stroke-width:60.000000; stroke-opacity:1; 
stroke-linecap:round; stroke-linejoin:round;">
<g transform="rotate(-90.000000 58000.000000 10800.000000)">
<text x="58000.000000" y="11050.000000"
textLength="536.181102" font-size="666.653543" lengthAdjust="spacingAndGlyphs"
text-anchor="start" opacity="0">S</text>
</g>
<g class="stroked-text"><desc>S</desc>
<path d="M58202 10674
L58226 10603
L58226 10484
L58202 10436
L58178 10412
L58130 10389
L58083 10389
L58035 10412
L58011 10436
L57988 10484
L57964 10579
L57940 10627
L57916 10650
L57869 10674
L57821 10674
L57773 10650
L57750 10627
L57726 10579
L57726 10460
L57750 10389
" />
</g></g>
<g style="fill:#C00000; fill-opacity:0.0; 
stroke:#C00000; stroke-width:60.000000; stroke-opacity:1; 
stroke-linecap:round; stroke-linejoin:round;">
<g transform="rotate(-90.000000 57900.000000 11500.000000)">
<text x="57900.000000" y="11500.000000"
textLength="536.181102" font-size="666.653543" lengthAdjust="spacingAndGlyphs"
text-anchor="middle" opacity="0">3</text>
</g>
<g class="stroked-text"><desc>3</desc>
<path d="M57376 11666
L57376 11357
L57566 11523
L57566 11452
L57590 11404
L57614 11380
L57661 11357
L57780 11357
L57828 11380
L57852 11404
L57876 11452
L57876 11595
L57852 11642
L57828 11666
" />
</g></g>
<g style="fill:#C0C0C0; fill-opacity:0.0; 
stroke:#C0C0C0; stroke-width:60.000000; stroke-opacity:1; 
stroke-linecap:round; stroke-linejoin:round;">
<text x="55971.732283" y="8750.000000"
textLength="3940.944882" font-size="666.653543" lengthAdjust="spacingAndGlyphs"
text-anchor="middle" opacity="0">ir_reciever</text>
<g class="stroked-text"><desc>ir_reciever</desc>
<path d="M54150 8726
L54150 8392
" />
<path d="M54150 8226
L54126 8250
L54150 8273
L54174 8250
L54150 8226
L54150 8273
" />
<path d="M54388 8726
L54388 8392
" />
<path d="M54388 8488
L54412 8440
L54435 8416
L54483 8392
L54531 8392
" />
<path d="M54578 8773
L54959 8773
" />
<path d="M55078 8726
L55078 8392
" />
<path d="M55078 8488
L55102 8440
L55126 8416
L55174 8392
L55221 8392
" />
<path d="M55578 8702
L55531 8726
L55435 8726
L55388 8702
L55364 8654
L55364 8464
L55388 8416
L55435 8392
L55531 8392
L55578 8416
L55602 8464
L55602 8511
L55364 8559
" />
<path d="M56031 8702
L55983 8726
L55888 8726
L55840 8702
L55816 8678
L55793 8630
L55793 8488
L55816 8440
L55840 8416
L55888 8392
L55983 8392
L56031 8416
" />
<path d="M56245 8726
L56245 8392
" />
<path d="M56245 8226
L56221 8250
L56245 8273
L56269 8250
L56245 8226
L56245 8273
" />
<path d="M56674 8702
L56626 8726
L56531 8726
L56483 8702
L56459 8654
L56459 8464
L56483 8416
L56531 8392
L56626 8392
L56674 8416
L56697 8464
L56697 8511
L56459 8559
" />
<path d="M56864 8392
L56983 8726
L57102 8392
" />
<path d="M57483 8702
L57435 8726
L57340 8726
L57293 8702
L57269 8654
L57269 8464
L57293 8416
L57340 8392
L57435 8392
L57483 8416
L57507 8464
L57507 8511
L57269 8559
" />
<path d="M57721 8726
L57721 8392
" />
<path d="M57721 8488
L57745 8440
L57769 8416
L57816 8392
L57864 8392
" />
</g></g>
</g>
<g style="fill:#C0C0C0; fill-opacity:0.0; 
stroke:#C0C0C0; stroke-width:60.000000; stroke-opacity:1; 
stroke-linecap:round; stroke-linejoin:round;">
<g >
</g>
<g style="fill:#C00000; fill-opacity:0.0; 
stroke:#C00000; stroke-width:60.000000; stroke-opacity:1; 
stroke-linecap:round; stroke-linejoin:round;">
<path style="fill:#C00000; fill-opacity:0.0; 
stroke:#C00000; stroke-width:60.000000; stroke-opacity:1; 
stroke-linecap:round; stroke-linejoin:round;fill:none"
d="M 52750.000000,13750.000000
53250.000000,13750.000000
" /> 
<path style="fill:#C00000; fill-opacity:0.0; 
stroke:#C00000; stroke-width:60.000000; stroke-opacity:1; 
stroke-linecap:round; stroke-linejoin:round;fill:none"
d="M 52950.000000,14000.000000
53050.000000,14000.000000
" /> 
<path style="fill:#C00000; fill-opacity:0.0; 
stroke:#C00000; stroke-width:60.000000; stroke-opacity:1; 
stroke-linecap:round; stroke-linejoin:round;fill:none"
d="M 53000.000000,13500.000000
53000.000000,13000.000000
" /> 
<path style="fill:#C00000; fill-opacity:0.0; 
stroke:#C00000; stroke-width:60.000000; stroke-opacity:1; 
stroke-linecap:round; stroke-linejoin:round;fill:none"
d="M 53500.000000,13500.000000
52500.000000,13500.000000
" /> 
</g>
</g>
<g style="fill:#C00000; fill-opacity:0.0; 
stroke:#C00000; stroke-width:60.000000; stroke-opacity:1; 
stroke-linecap:round; stroke-linejoin:round;">
<g >
</g>
<g style="fill:#2C2C2C; fill-opacity:0.0; 
stroke:#2C2C2C; stroke-width:60.000000; stroke-opacity:1; 
stroke-linecap:round; stroke-linejoin:round;">
</g>
<g style="fill:#2C2C2C; fill-opacity:0.6; 
stroke:#2C2C2C; stroke-width:0.039370; stroke-opacity:1; 
stroke-linecap:round; stroke-linejoin:round;">
<rect x="9500.000000" y="12500.000000" width="38000.000000" height="18500.000000" rx="0.000000" />
</g>
<g style="fill:#C00000; fill-opacity:0.6; 
stroke:#C00000; stroke-width:0.039370; stroke-opacity:1; 
stroke-linecap:round; stroke-linejoin:round;">
</g>
<g style="fill:#C00000; fill-opacity:0.0; 
stroke:#C00000; stroke-width:60.000000; stroke-opacity:1; 
stroke-linecap:round; stroke-linejoin:round;">
<rect x="9500.000000" y="12500.000000" width="38000.000000" height="18500.000000" rx="0.000000" />
<rect x="9500.000000" y="12500.000000" width="38000.000000" height="18500.000000" rx="0.000000" />
<path d="M13500 31000
L13500 32000
" />
</g>
<g style="fill:#C0C0C0; fill-opacity:0.0; 
stroke:#C0C0C0; stroke-width:60.000000; stroke-opacity:1; 
stroke-linecap:round; stroke-linejoin:round;">
<g transform="rotate(-90.000000 13500.000000 30800.000000)">
<text x="13500.000000" y="31114.960630"
textLength="1799.763780" font-size="839.881890" lengthAdjust="spacingAndGlyphs"
text-anchor="start" opacity="0">3V3</text>
</g>
<g class="stroked-text"><desc>3V3</desc>
<path d="M13155 30680
L13155 30290
L13395 30500
L13395 30410
L13425 30350
L13455 30320
L13514 30290
L13664 30290
L13724 30320
L13754 30350
L13784 30410
L13784 30590
L13754 30650
L13724 30680
" />
<path d="M13155 30110
L13784 29900
L13155 29690
" />
<path d="M13155 29540
L13155 29150
L13395 29360
L13395 29270
L13425 29210
L13455 29180
L13514 29150
L13664 29150
L13724 29180
L13754 29210
L13784 29270
L13784 29450
L13754 29510
L13724 29540
" />
</g></g>
<g style="fill:#C00000; fill-opacity:0.0; 
stroke:#C00000; stroke-width:60.000000; stroke-opacity:1; 
stroke-linecap:round; stroke-linejoin:round;">
<path d="M38500 31000
L38500 32000
" />
</g>
<g style="fill:#C0C0C0; fill-opacity:0.0; 
stroke:#C0C0C0; stroke-width:60.000000; stroke-opacity:1; 
stroke-linecap:round; stroke-linejoin:round;">
<g transform="rotate(-90.000000 38500.000000 30800.000000)">
<text x="38500.000000" y="31114.960630"
textLength="1199.842520" font-size="839.881890" lengthAdjust="spacingAndGlyphs"
text-anchor="start" opacity="0">5V</text>
</g>
<g class="stroked-text"><desc>5V</desc>
<path d="M38155 30320
L38155 30620
L38455 30650
L38425 30620
L38395 30560
L38395 30410
L38425 30350
L38455 30320
L38514 30290
L38664 30290
L38724 30320
L38754 30350
L38784 30410
L38784 30560
L38754 30620
L38724 30650
" />
<path d="M38155 30110
L38784 29900
L38155 29690
" />
</g></g>
<g style="fill:#C00000; fill-opacity:0.0; 
stroke:#C00000; stroke-width:60.000000; stroke-opacity:1; 
stroke-linecap:round; stroke-linejoin:round;">
<path d="M21000 31000
L21000 32000
" />
</g>
<g style="fill:#C0C0C0; fill-opacity:0.0; 
stroke:#C0C0C0; stroke-width:60.000000; stroke-opacity:1; 
stroke-linecap:round; stroke-linejoin:round;">
<g transform="rotate(-90.000000 21000.000000 30800.000000)">
<text x="21000.000000" y="31114.960630"
textLength="1199.842520" font-size="839.881890" lengthAdjust="spacingAndGlyphs"
text-anchor="start" opacity="0">A1</text>
</g>
<g class="stroked-text"><desc>A1</desc>
<path d="M21104 30650
L21104 30350
" />
<path d="M21284 30710
L20655 30500
L21284 30290
" />
<path d="M21284 29750
L21284 30110
" />
<path d="M21284 29930
L20655 29930
L20745 29990
L20805 30050
L20835 30110
" />
</g></g>
<g style="fill:#C00000; fill-opacity:0.0; 
stroke:#C00000; stroke-width:60.000000; stroke-opacity:1; 
stroke-linecap:round; stroke-linejoin:round;">
<path d="M23500 31000
L23500 32000
" />
</g>
<g style="fill:#C0C0C0; fill-opacity:0.0; 
stroke:#C0C0C0; stroke-width:60.000000; stroke-opacity:1; 
stroke-linecap:round; stroke-linejoin:round;">
<g transform="rotate(-90.000000 23500.000000 30800.000000)">
<text x="23500.000000" y="31114.960630"
textLength="1199.842520" font-size="839.881890" lengthAdjust="spacingAndGlyphs"
text-anchor="start" opacity="0">A2</text>
</g>
<g class="stroked-text"><desc>A2</desc>
<path d="M23604 30650
L23604 30350
" />
<path d="M23784 30710
L23155 30500
L23784 30290
" />
<path d="M23215 30110
L23185 30080
L23155 30020
L23155 29870
L23185 29810
L23215 29780
L23275 29750
L23335 29750
L23425 29780
L23784 30140
L23784 29750
" />
</g></g>
<g style="fill:#C00000; fill-opacity:0.0; 
stroke:#C00000; stroke-width:60.000000; stroke-opacity:1; 
stroke-linecap:round; stroke-linejoin:round;">
<path d="M26000 31000
L26000 32000
" />
</g>
<g style="fill:#C0C0C0; fill-opacity:0.0; 
stroke:#C0C0C0; stroke-width:60.000000; stroke-opacity:1; 
stroke-linecap:round; stroke-linejoin:round;">
<g transform="rotate(-90.000000 26000.000000 30800.000000)">
<text x="26000.000000" y="31114.960630"
textLength="1199.842520" font-size="839.881890" lengthAdjust="spacingAndGlyphs"
text-anchor="start" opacity="0">A3</text>
</g>
<g class="stroked-text"><desc>A3</desc>
<path d="M26104 30650
L26104 30350
" />
<path d="M26284 30710
L25655 30500
L26284 30290
" />
<path d="M25655 30140
L25655 29750
L25895 29960
L25895 29870
L25925 29810
L25955 29780
L26014 29750
L26164 29750
L26224 29780
L26254 29810
L26284 29870
L26284 30050
L26254 30110
L26224 30140
" />
</g></g>
<g style="fill:#C00000; fill-opacity:0.0; 
stroke:#C00000; stroke-width:60.000000; stroke-opacity:1; 
stroke-linecap:round; stroke-linejoin:round;">
<path d="M28500 31000
L28500 32000
" />
</g>
<g style="fill:#C0C0C0; fill-opacity:0.0; 
stroke:#C0C0C0; stroke-width:60.000000; stroke-opacity:1; 
stroke-linecap:round; stroke-linejoin:round;">
<g transform="rotate(-90.000000 28500.000000 30800.000000)">
<text x="28500.000000" y="31114.960630"
textLength="1199.842520" font-size="839.881890" lengthAdjust="spacingAndGlyphs"
text-anchor="start" opacity="0">A4</text>
</g>
<g class="stroked-text"><desc>A4</desc>
<path d="M28604 30650
L28604 30350
" />
<path d="M28784 30710
L28155 30500
L28784 30290
" />
<path d="M28365 29810
L28784 29810
" />
<path d="M28125 29960
L28574 30110
L28574 29720
" />
</g></g>
<g style="fill:#C00000; fill-opacity:0.0; 
stroke:#C00000; stroke-width:60.000000; stroke-opacity:1; 
stroke-linecap:round; stroke-linejoin:round;">
<path d="M31000 31000
L31000 32000
" />
</g>
<g style="fill:#C0C0C0; fill-opacity:0.0; 
stroke:#C0C0C0; stroke-width:60.000000; stroke-opacity:1; 
stroke-linecap:round; stroke-linejoin:round;">
<g transform="rotate(-90.000000 31000.000000 30800.000000)">
<text x="31000.000000" y="31114.960630"
textLength="1199.842520" font-size="839.881890" lengthAdjust="spacingAndGlyphs"
text-anchor="start" opacity="0">A5</text>
</g>
<g class="stroked-text"><desc>A5</desc>
<path d="M31104 30650
L31104 30350
" />
<path d="M31284 30710
L30655 30500
L31284 30290
" />
<path d="M30655 29780
L30655 30080
L30955 30110
L30925 30080
L30895 30020
L30895 29870
L30925 29810
L30955 29780
L31014 29750
L31164 29750
L31224 29780
L31254 29810
L31284 29870
L31284 30020
L31254 30080
L31224 30110
" />
</g></g>
<g style="fill:#C00000; fill-opacity:0.0; 
stroke:#C00000; stroke-width:60.000000; stroke-opacity:1; 
stroke-linecap:round; stroke-linejoin:round;">
<path d="M33500 31000
L33500 32000
" />
</g>
<g style="fill:#C0C0C0; fill-opacity:0.0; 
stroke:#C0C0C0; stroke-width:60.000000; stroke-opacity:1; 
stroke-linecap:round; stroke-linejoin:round;">
<g transform="rotate(-90.000000 33500.000000 30800.000000)">
<text x="33500.000000" y="31114.960630"
textLength="1199.842520" font-size="839.881890" lengthAdjust="spacingAndGlyphs"
text-anchor="start" opacity="0">A6</text>
</g>
<g class="stroked-text"><desc>A6</desc>
<path d="M33604 30650
L33604 30350
" />
<path d="M33784 30710
L33155 30500
L33784 30290
" />
<path d="M33155 29810
L33155 29930
L33185 29990
L33215 30020
L33305 30080
L33425 30110
L33664 30110
L33724 30080
L33754 30050
L33784 29990
L33784 29870
L33754 29810
L33724 29780
L33664 29750
L33514 29750
L33455 29780
L33425 29810
L33395 29870
L33395 29990
L33425 30050
L33455 30080
L33514 30110
" />
</g></g>
<g style="fill:#C00000; fill-opacity:0.0; 
stroke:#C00000; stroke-width:60.000000; stroke-opacity:1; 
stroke-linecap:round; stroke-linejoin:round;">
<path d="M36000 31000
L36000 32000
" />
</g>
<g style="fill:#C0C0C0; fill-opacity:0.0; 
stroke:#C0C0C0; stroke-width:60.000000; stroke-opacity:1; 
stroke-linecap:round; stroke-linejoin:round;">
<g transform="rotate(-90.000000 36000.000000 30800.000000)">
<text x="36000.000000" y="31114.960630"
textLength="1199.842520" font-size="839.881890" lengthAdjust="spacingAndGlyphs"
text-anchor="start" opacity="0">A7</text>
</g>
<g class="stroked-text"><desc>A7</desc>
<path d="M36104 30650
L36104 30350
" />
<path d="M36284 30710
L35655 30500
L36284 30290
" />
<path d="M35655 30140
L35655 29720
L36284 29990
" />
</g></g>
<g style="fill:#C00000; fill-opacity:0.0; 
stroke:#C00000; stroke-width:60.000000; stroke-opacity:1; 
stroke-linecap:round; stroke-linejoin:round;">
<path d="M18500 31000
L18500 32000
" />
</g>
<g style="fill:#C0C0C0; fill-opacity:0.0; 
stroke:#C0C0C0; stroke-width:60.000000; stroke-opacity:1; 
stroke-linecap:round; stroke-linejoin:round;">
<g transform="rotate(-90.000000 18500.000000 30800.000000)">
<text x="18500.000000" y="31114.960630"
textLength="1199.842520" font-size="839.881890" lengthAdjust="spacingAndGlyphs"
text-anchor="start" opacity="0">A8</text>
</g>
<g class="stroked-text"><desc>A8</desc>
<path d="M18604 30650
L18604 30350
" />
<path d="M18784 30710
L18155 30500
L18784 30290
" />
<path d="M18425 29990
L18395 30050
L18365 30080
L18305 30110
L18275 30110
L18215 30080
L18185 30050
L18155 29990
L18155 29870
L18185 29810
L18215 29780
L18275 29750
L18305 29750
L18365 29780
L18395 29810
L18425 29870
L18425 29990
L18455 30050
L18485 30080
L18544 30110
L18664 30110
L18724 30080
L18754 30050
L18784 29990
L18784 29870
L18754 29810
L18724 29780
L18664 29750
L18544 29750
L18485 29780
L18455 29810
L18425 29870
" />
</g></g>
<g style="fill:#C00000; fill-opacity:0.0; 
stroke:#C00000; stroke-width:60.000000; stroke-opacity:1; 
stroke-linecap:round; stroke-linejoin:round;">
<path d="M16000 13000
L16000 12000
" />
</g>
<g style="fill:#C0C0C0; fill-opacity:0.0; 
stroke:#C0C0C0; stroke-width:60.000000; stroke-opacity:1; 
stroke-linecap:round; stroke-linejoin:round;">
<g transform="rotate(-90.000000 16000.000000 13200.000000)">
<text x="16000.000000" y="13514.960630"
textLength="1889.763780" font-size="839.881890" lengthAdjust="spacingAndGlyphs"
text-anchor="end" opacity="0">D10</text>
</g>
<g class="stroked-text"><desc>D10</desc>
<path d="M16284 14909
L15655 14909
L15655 14759
L15685 14669
L15745 14609
L15805 14579
L15925 14549
L16014 14549
L16134 14579
L16194 14609
L16254 14669
L16284 14759
L16284 14909
" />
<path d="M16284 13949
L16284 14309
" />
<path d="M16284 14129
L15655 14129
L15745 14189
L15805 14249
L15835 14309
" />
<path d="M15655 13559
L15655 13499
L15685 13439
L15715 13409
L15775 13379
L15895 13349
L16044 13349
L16164 13379
L16224 13409
L16254 13439
L16284 13499
L16284 13559
L16254 13619
L16224 13649
L16164 13679
L16044 13709
L15895 13709
L15775 13679
L15715 13649
L15685 13619
L15655 13559
" />
</g></g>
<g style="fill:#C00000; fill-opacity:0.0; 
stroke:#C00000; stroke-width:60.000000; stroke-opacity:1; 
stroke-linecap:round; stroke-linejoin:round;">
<path d="M13500 13000
L13500 12000
" />
</g>
<g style="fill:#C0C0C0; fill-opacity:0.0; 
stroke:#C0C0C0; stroke-width:60.000000; stroke-opacity:1; 
stroke-linecap:round; stroke-linejoin:round;">
<g transform="rotate(-90.000000 13500.000000 13200.000000)">
<text x="13500.000000" y="13514.960630"
textLength="1889.763780" font-size="839.881890" lengthAdjust="spacingAndGlyphs"
text-anchor="end" opacity="0">D11</text>
</g>
<g class="stroked-text"><desc>D11</desc>
<path d="M13784 14909
L13155 14909
L13155 14759
L13185 14669
L13245 14609
L13305 14579
L13425 14549
L13514 14549
L13634 14579
L13694 14609
L13754 14669
L13784 14759
L13784 14909
" />
<path d="M13784 13949
L13784 14309
" />
<path d="M13784 14129
L13155 14129
L13245 14189
L13305 14249
L13335 14309
" />
<path d="M13784 13349
L13784 13709
" />
<path d="M13784 13529
L13155 13529
L13245 13589
L13305 13649
L13335 13709
" />
</g></g>
<g style="fill:#C00000; fill-opacity:0.0; 
stroke:#C00000; stroke-width:60.000000; stroke-opacity:1; 
stroke-linecap:round; stroke-linejoin:round;">
<path d="M11000 13000
L11000 12000
" />
</g>
<g style="fill:#C0C0C0; fill-opacity:0.0; 
stroke:#C0C0C0; stroke-width:60.000000; stroke-opacity:1; 
stroke-linecap:round; stroke-linejoin:round;">
<g transform="rotate(-90.000000 11000.000000 13200.000000)">
<text x="11000.000000" y="13514.960630"
textLength="1889.763780" font-size="839.881890" lengthAdjust="spacingAndGlyphs"
text-anchor="end" opacity="0">D12</text>
</g>
<g class="stroked-text"><desc>D12</desc>
<path d="M11284 14909
L10655 14909
L10655 14759
L10685 14669
L10745 14609
L10805 14579
L10925 14549
L11014 14549
L11134 14579
L11194 14609
L11254 14669
L11284 14759
L11284 14909
" />
<path d="M11284 13949
L11284 14309
" />
<path d="M11284 14129
L10655 14129
L10745 14189
L10805 14249
L10835 14309
" />
<path d="M10715 13709
L10685 13679
L10655 13619
L10655 13469
L10685 13409
L10715 13379
L10775 13349
L10835 13349
L10925 13379
L11284 13739
L11284 13349
" />
</g></g>
<g style="fill:#C00000; fill-opacity:0.0; 
stroke:#C00000; stroke-width:60.000000; stroke-opacity:1; 
stroke-linecap:round; stroke-linejoin:round;">
<path d="M11000 31000
L11000 32000
" />
</g>
<g style="fill:#C0C0C0; fill-opacity:0.0; 
stroke:#C0C0C0; stroke-width:60.000000; stroke-opacity:1; 
stroke-linecap:round; stroke-linejoin:round;">
<g transform="rotate(-90.000000 11000.000000 30800.000000)">
<text x="11000.000000" y="31114.960630"
textLength="1889.763780" font-size="839.881890" lengthAdjust="spacingAndGlyphs"
text-anchor="start" opacity="0">D13</text>
</g>
<g class="stroked-text"><desc>D13</desc>
<path d="M11284 30620
L10655 30620
L10655 30470
L10685 30380
L10745 30320
L10805 30290
L10925 30260
L11014 30260
L11134 30290
L11194 30320
L11254 30380
L11284 30470
L11284 30620
" />
<path d="M11284 29660
L11284 30020
" />
<path d="M11284 29840
L10655 29840
L10745 29900
L10805 29960
L10835 30020
" />
<path d="M10655 29450
L10655 29060
L10895 29270
L10895 29180
L10925 29120
L10955 29090
L11014 29060
L11164 29060
L11224 29090
L11254 29120
L11284 29180
L11284 29360
L11254 29420
L11224 29450
" />
</g></g>
<g style="fill:#C00000; fill-opacity:0.0; 
stroke:#C00000; stroke-width:60.000000; stroke-opacity:1; 
stroke-linecap:round; stroke-linejoin:round;">
<path d="M36000 13000
L36000 12000
" />
</g>
<g style="fill:#C0C0C0; fill-opacity:0.0; 
stroke:#C0C0C0; stroke-width:60.000000; stroke-opacity:1; 
stroke-linecap:round; stroke-linejoin:round;">
<g transform="rotate(-90.000000 36000.000000 13200.000000)">
<text x="36000.000000" y="13514.960630"
textLength="1289.842520" font-size="839.881890" lengthAdjust="spacingAndGlyphs"
text-anchor="end" opacity="0">D2</text>
</g>
<g class="stroked-text"><desc>D2</desc>
<path d="M36284 14309
L35655 14309
L35655 14159
L35685 14069
L35745 14009
L35805 13979
L35925 13949
L36014 13949
L36134 13979
L36194 14009
L36254 14069
L36284 14159
L36284 14309
" />
<path d="M35715 13709
L35685 13679
L35655 13619
L35655 13469
L35685 13409
L35715 13379
L35775 13349
L35835 13349
L35925 13379
L36284 13739
L36284 13349
" />
</g></g>
<g style="fill:#C00000; fill-opacity:0.0; 
stroke:#C00000; stroke-width:60.000000; stroke-opacity:1; 
stroke-linecap:round; stroke-linejoin:round;">
<path d="M33500 13000
L33500 12000
" />
</g>
<g style="fill:#C0C0C0; fill-opacity:0.0; 
stroke:#C0C0C0; stroke-width:60.000000; stroke-opacity:1; 
stroke-linecap:round; stroke-linejoin:round;">
<g transform="rotate(-90.000000 33500.000000 13200.000000)">
<text x="33500.000000" y="13514.960630"
textLength="1289.842520" font-size="839.881890" lengthAdjust="spacingAndGlyphs"
text-anchor="end" opacity="0">D3</text>
</g>
<g class="stroked-text"><desc>D3</desc>
<path d="M33784 14309
L33155 14309
L33155 14159
L33185 14069
L33245 14009
L33305 13979
L33425 13949
L33514 13949
L33634 13979
L33694 14009
L33754 14069
L33784 14159
L33784 14309
" />
<path d="M33155 13739
L33155 13349
L33395 13559
L33395 13469
L33425 13409
L33455 13379
L33514 13349
L33664 13349
L33724 13379
L33754 13409
L33784 13469
L33784 13649
L33754 13709
L33724 13739
" />
</g></g>
<g style="fill:#C00000; fill-opacity:0.0; 
stroke:#C00000; stroke-width:60.000000; stroke-opacity:1; 
stroke-linecap:round; stroke-linejoin:round;">
<path d="M31000 13000
L31000 12000
" />
</g>
<g style="fill:#C0C0C0; fill-opacity:0.0; 
stroke:#C0C0C0; stroke-width:60.000000; stroke-opacity:1; 
stroke-linecap:round; stroke-linejoin:round;">
<g transform="rotate(-90.000000 31000.000000 13200.000000)">
<text x="31000.000000" y="13514.960630"
textLength="1289.842520" font-size="839.881890" lengthAdjust="spacingAndGlyphs"
text-anchor="end" opacity="0">D4</text>
</g>
<g class="stroked-text"><desc>D4</desc>
<path d="M31284 14309
L30655 14309
L30655 14159
L30685 14069
L30745 14009
L30805 13979
L30925 13949
L31014 13949
L31134 13979
L31194 14009
L31254 14069
L31284 14159
L31284 14309
" />
<path d="M30865 13409
L31284 13409
" />
<path d="M30625 13559
L31074 13709
L31074 13319
" />
</g></g>
<g style="fill:#C00000; fill-opacity:0.0; 
stroke:#C00000; stroke-width:60.000000; stroke-opacity:1; 
stroke-linecap:round; stroke-linejoin:round;">
<path d="M28500 13000
L28500 12000
" />
</g>
<g style="fill:#C0C0C0; fill-opacity:0.0; 
stroke:#C0C0C0; stroke-width:60.000000; stroke-opacity:1; 
stroke-linecap:round; stroke-linejoin:round;">
<g transform="rotate(-90.000000 28500.000000 13200.000000)">
<text x="28500.000000" y="13514.960630"
textLength="1289.842520" font-size="839.881890" lengthAdjust="spacingAndGlyphs"
text-anchor="end" opacity="0">D5</text>
</g>
<g class="stroked-text"><desc>D5</desc>
<path d="M28784 14309
L28155 14309
L28155 14159
L28185 14069
L28245 14009
L28305 13979
L28425 13949
L28514 13949
L28634 13979
L28694 14009
L28754 14069
L28784 14159
L28784 14309
" />
<path d="M28155 13379
L28155 13679
L28455 13709
L28425 13679
L28395 13619
L28395 13469
L28425 13409
L28455 13379
L28514 13349
L28664 13349
L28724 13379
L28754 13409
L28784 13469
L28784 13619
L28754 13679
L28724 13709
" />
</g></g>
<g style="fill:#C00000; fill-opacity:0.0; 
stroke:#C00000; stroke-width:60.000000; stroke-opacity:1; 
stroke-linecap:round; stroke-linejoin:round;">
<path d="M26000 13000
L26000 12000
" />
</g>
<g style="fill:#C0C0C0; fill-opacity:0.0; 
stroke:#C0C0C0; stroke-width:60.000000; stroke-opacity:1; 
stroke-linecap:round; stroke-linejoin:round;">
<g transform="rotate(-90.000000 26000.000000 13200.000000)">
<text x="26000.000000" y="13514.960630"
textLength="1289.842520" font-size="839.881890" lengthAdjust="spacingAndGlyphs"
text-anchor="end" opacity="0">D6</text>
</g>
<g class="stroked-text"><desc>D6</desc>
<path d="M26284 14309
L25655 14309
L25655 14159
L25685 14069
L25745 14009
L25805 13979
L25925 13949
L26014 13949
L26134 13979
L26194 14009
L26254 14069
L26284 14159
L26284 14309
" />
<path d="M25655 13409
L25655 13529
L25685 13589
L25715 13619
L25805 13679
L25925 13709
L26164 13709
L26224 13679
L26254 13649
L26284 13589
L26284 13469
L26254 13409
L26224 13379
L26164 13349
L26014 13349
L25955 13379
L25925 13409
L25895 13469
L25895 13589
L25925 13649
L25955 13679
L26014 13709
" />
</g></g>
<g style="fill:#C00000; fill-opacity:0.0; 
stroke:#C00000; stroke-width:60.000000; stroke-opacity:1; 
stroke-linecap:round; stroke-linejoin:round;">
<path d="M23500 13000
L23500 12000
" />
</g>
<g style="fill:#C0C0C0; fill-opacity:0.0; 
stroke:#C0C0C0; stroke-width:60.000000; stroke-opacity:1; 
stroke-linecap:round; stroke-linejoin:round;">
<g transform="rotate(-90.000000 23500.000000 13200.000000)">
<text x="23500.000000" y="13514.960630"
textLength="1289.842520" font-size="839.881890" lengthAdjust="spacingAndGlyphs"
text-anchor="end" opacity="0">D7</text>
</g>
<g class="stroked-text"><desc>D7</desc>
<path d="M23784 14309
L23155 14309
L23155 14159
L23185 14069
L23245 14009
L23305 13979
L23425 13949
L23514 13949
L23634 13979
L23694 14009
L23754 14069
L23784 14159
L23784 14309
" />
<path d="M23155 13739
L23155 13319
L23784 13589
" />
</g></g>
<g style="fill:#C00000; fill-opacity:0.0; 
stroke:#C00000; stroke-width:60.000000; stroke-opacity:1; 
stroke-linecap:round; stroke-linejoin:round;">
<path d="M21000 13000
L21000 12000
" />
</g>
<g style="fill:#C0C0C0; fill-opacity:0.0; 
stroke:#C0C0C0; stroke-width:60.000000; stroke-opacity:1; 
stroke-linecap:round; stroke-linejoin:round;">
<g transform="rotate(-90.000000 21000.000000 13200.000000)">
<text x="21000.000000" y="13514.960630"
textLength="1289.842520" font-size="839.881890" lengthAdjust="spacingAndGlyphs"
text-anchor="end" opacity="0">D8</text>
</g>
<g class="stroked-text"><desc>D8</desc>
<path d="M21284 14309
L20655 14309
L20655 14159
L20685 14069
L20745 14009
L20805 13979
L20925 13949
L21014 13949
L21134 13979
L21194 14009
L21254 14069
L21284 14159
L21284 14309
" />
<path d="M20925 13589
L20895 13649
L20865 13679
L20805 13709
L20775 13709
L20715 13679
L20685 13649
L20655 13589
L20655 13469
L20685 13409
L20715 13379
L20775 13349
L20805 13349
L20865 13379
L20895 13409
L20925 13469
L20925 13589
L20955 13649
L20985 13679
L21044 13709
L21164 13709
L21224 13679
L21254 13649
L21284 13589
L21284 13469
L21254 13409
L21224 13379
L21164 13349
L21044 13349
L20985 13379
L20955 13409
L20925 13469
" />
</g></g>
<g style="fill:#C00000; fill-opacity:0.0; 
stroke:#C00000; stroke-width:60.000000; stroke-opacity:1; 
stroke-linecap:round; stroke-linejoin:round;">
<path d="M18500 13000
L18500 12000
" />
</g>
<g style="fill:#C0C0C0; fill-opacity:0.0; 
stroke:#C0C0C0; stroke-width:60.000000; stroke-opacity:1; 
stroke-linecap:round; stroke-linejoin:round;">
<g transform="rotate(-90.000000 18500.000000 13200.000000)">
<text x="18500.000000" y="13514.960630"
textLength="1289.842520" font-size="839.881890" lengthAdjust="spacingAndGlyphs"
text-anchor="end" opacity="0">D9</text>
</g>
<g class="stroked-text"><desc>D9</desc>
<path d="M18784 14309
L18155 14309
L18155 14159
L18185 14069
L18245 14009
L18305 13979
L18425 13949
L18514 13949
L18634 13979
L18694 14009
L18754 14069
L18784 14159
L18784 14309
" />
<path d="M18784 13649
L18784 13529
L18754 13469
L18724 13439
L18634 13379
L18514 13349
L18275 13349
L18215 13379
L18185 13409
L18155 13469
L18155 13589
L18185 13649
L18215 13679
L18275 13709
L18425 13709
L18485 13679
L18514 13649
L18544 13589
L18544 13469
L18514 13409
L18485 13379
L18425 13349
" />
</g></g>
<g style="fill:#C00000; fill-opacity:0.0; 
stroke:#C00000; stroke-width:60.000000; stroke-opacity:1; 
stroke-linecap:round; stroke-linejoin:round;">
<path d="M38500 13000
L38500 12000
" />
</g>
<g style="fill:#C0C0C0; fill-opacity:0.0; 
stroke:#C0C0C0; stroke-width:60.000000; stroke-opacity:1; 
stroke-linecap:round; stroke-linejoin:round;">
<g transform="rotate(-90.000000 38500.000000 13200.000000)">
<text x="38500.000000" y="13514.960630"
textLength="1979.763780" font-size="839.881890" lengthAdjust="spacingAndGlyphs"
text-anchor="end" opacity="0">GND</text>
</g>
<g class="stroked-text"><desc>GND</desc>
<path d="M38185 14669
L38155 14729
L38155 14819
L38185 14909
L38245 14969
L38305 14999
L38425 15029
L38514 15029
L38634 14999
L38694 14969
L38754 14909
L38784 14819
L38784 14759
L38754 14669
L38724 14639
L38514 14639
L38514 14759
" />
<path d="M38784 14369
L38155 14369
L38784 14009
L38155 14009
" />
<path d="M38784 13709
L38155 13709
L38155 13559
L38185 13469
L38245 13409
L38305 13379
L38425 13349
L38514 13349
L38634 13379
L38694 13409
L38754 13469
L38784 13559
L38784 13709
" />
</g></g>
<g style="fill:#C00000; fill-opacity:0.0; 
stroke:#C00000; stroke-width:60.000000; stroke-opacity:1; 
stroke-linecap:round; stroke-linejoin:round;">
<path d="M43500 31000
L43500 32000
" />
</g>
<g style="fill:#C0C0C0; fill-opacity:0.0; 
stroke:#C0C0C0; stroke-width:60.000000; stroke-opacity:1; 
stroke-linecap:round; stroke-linejoin:round;">
<g transform="rotate(-90.000000 43500.000000 30800.000000)">
<text x="43500.000000" y="31114.960630"
textLength="1979.763780" font-size="839.881890" lengthAdjust="spacingAndGlyphs"
text-anchor="start" opacity="0">GND</text>
</g>
<g class="stroked-text"><desc>GND</desc>
<path d="M43185 30290
L43155 30350
L43155 30440
L43185 30530
L43245 30590
L43305 30620
L43425 30650
L43514 30650
L43634 30620
L43694 30590
L43754 30530
L43784 30440
L43784 30380
L43754 30290
L43724 30260
L43514 30260
L43514 30380
" />
<path d="M43784 29990
L43155 29990
L43784 29630
L43155 29630
" />
<path d="M43784 29330
L43155 29330
L43155 29180
L43185 29090
L43245 29030
L43305 29000
L43425 28970
L43514 28970
L43634 29000
L43694 29030
L43754 29090
L43784 29180
L43784 29330
" />
</g></g>
<g style="fill:#C00000; fill-opacity:0.0; 
stroke:#C00000; stroke-width:60.000000; stroke-opacity:1; 
stroke-linecap:round; stroke-linejoin:round;">
<path d="M16000 31000
L16000 32000
" />
</g>
<g style="fill:#C0C0C0; fill-opacity:0.0; 
stroke:#C0C0C0; stroke-width:60.000000; stroke-opacity:1; 
stroke-linecap:round; stroke-linejoin:round;">
<g transform="rotate(-90.000000 16000.000000 30800.000000)">
<text x="16000.000000" y="31114.960630"
textLength="1799.763780" font-size="839.881890" lengthAdjust="spacingAndGlyphs"
text-anchor="start" opacity="0">REF</text>
</g>
<g class="stroked-text"><desc>REF</desc>
<path d="M16284 30260
L15985 30470
" />
<path d="M16284 30620
L15655 30620
L15655 30380
L15685 30320
L15715 30290
L15775 30260
L15865 30260
L15925 30290
L15955 30320
L15985 30380
L15985 30620
" />
<path d="M15955 29990
L15955 29780
" />
<path d="M16284 29690
L16284 29990
L15655 29990
L15655 29690
" />
<path d="M15955 29210
L15955 29420
" />
<path d="M16284 29420
L15655 29420
L15655 29120
" />
</g></g>
<g style="fill:#C00000; fill-opacity:0.0; 
stroke:#C00000; stroke-width:60.000000; stroke-opacity:1; 
stroke-linecap:round; stroke-linejoin:round;">
<path d="M41000 31000
L41000 32000
" />
</g>
<g style="fill:#C0C0C0; fill-opacity:0.0; 
stroke:#C0C0C0; stroke-width:60.000000; stroke-opacity:1; 
stroke-linecap:round; stroke-linejoin:round;">
<g transform="rotate(-90.000000 41000.000000 30800.000000)">
<text x="41000.000000" y="31114.960630"
textLength="1769.803150" font-size="839.881890" lengthAdjust="spacingAndGlyphs"
text-anchor="start" opacity="0">RST</text>
</g>
<g class="stroked-text"><desc>RST</desc>
<path d="M41284 30260
L40985 30470
" />
<path d="M41284 30620
L40655 30620
L40655 30380
L40685 30320
L40715 30290
L40775 30260
L40865 30260
L40925 30290
L40955 30320
L40985 30380
L40985 30620
" />
<path d="M41254 30020
L41284 29930
L41284 29780
L41254 29720
L41224 29690
L41164 29660
L41104 29660
L41044 29690
L41014 29720
L40985 29780
L40955 29900
L40925 29960
L40895 29990
L40835 30020
L40775 30020
L40715 29990
L40685 29960
L40655 29900
L40655 29750
L40685 29660
" />
<path d="M40655 29480
L40655 29120
" />
<path d="M41284 29300
L40655 29300
" />
</g></g>
<g style="fill:#C00000; fill-opacity:0.0; 
stroke:#C00000; stroke-width:60.000000; stroke-opacity:1; 
stroke-linecap:round; stroke-linejoin:round;">
<path d="M41000 13000
L41000 12000
" />
</g>
<g style="fill:#C0C0C0; fill-opacity:0.0; 
stroke:#C0C0C0; stroke-width:60.000000; stroke-opacity:1; 
stroke-linecap:round; stroke-linejoin:round;">
<g transform="rotate(-90.000000 41000.000000 13200.000000)">
<text x="41000.000000" y="13514.960630"
textLength="1769.803150" font-size="839.881890" lengthAdjust="spacingAndGlyphs"
text-anchor="end" opacity="0">RST</text>
</g>
<g class="stroked-text"><desc>RST</desc>
<path d="M41284 14429
L40985 14639
" />
<path d="M41284 14789
L40655 14789
L40655 14549
L40685 14489
L40715 14459
L40775 14429
L40865 14429
L40925 14459
L40955 14489
L40985 14549
L40985 14789
" />
<path d="M41254 14189
L41284 14099
L41284 13949
L41254 13889
L41224 13859
L41164 13829
L41104 13829
L41044 13859
L41014 13889
L40985 13949
L40955 14069
L40925 14129
L40895 14159
L40835 14189
L40775 14189
L40715 14159
L40685 14129
L40655 14069
L40655 13919
L40685 13829
" />
<path d="M40655 13649
L40655 13289
" />
<path d="M41284 13469
L40655 13469
" />
</g></g>
<g style="fill:#C00000; fill-opacity:0.0; 
stroke:#C00000; stroke-width:60.000000; stroke-opacity:1; 
stroke-linecap:round; stroke-linejoin:round;">
<path d="M43500 13000
L43500 12000
" />
</g>
<g style="fill:#C0C0C0; fill-opacity:0.0; 
stroke:#C0C0C0; stroke-width:60.000000; stroke-opacity:1; 
stroke-linecap:round; stroke-linejoin:round;">
<g transform="rotate(-90.000000 43500.000000 13200.000000)">
<text x="43500.000000" y="13514.960630"
textLength="1289.842520" font-size="839.881890" lengthAdjust="spacingAndGlyphs"
text-anchor="end" opacity="0">RX</text>
</g>
<g class="stroked-text"><desc>RX</desc>
<path d="M43784 13949
L43485 14159
" />
<path d="M43784 14309
L43155 14309
L43155 14069
L43185 14009
L43215 13979
L43275 13949
L43365 13949
L43425 13979
L43455 14009
L43485 14069
L43485 14309
" />
<path d="M43155 13739
L43784 13319
" />
<path d="M43155 13319
L43784 13739
" />
</g></g>
<g style="fill:#C00000; fill-opacity:0.0; 
stroke:#C00000; stroke-width:60.000000; stroke-opacity:1; 
stroke-linecap:round; stroke-linejoin:round;">
<path d="M46000 13000
L46000 12000
" />
</g>
<g style="fill:#C0C0C0; fill-opacity:0.0; 
stroke:#C0C0C0; stroke-width:60.000000; stroke-opacity:1; 
stroke-linecap:round; stroke-linejoin:round;">
<g transform="rotate(-90.000000 46000.000000 13200.000000)">
<text x="46000.000000" y="13514.960630"
textLength="1139.881890" font-size="839.881890" lengthAdjust="spacingAndGlyphs"
text-anchor="end" opacity="0">TX</text>
</g>
<g class="stroked-text"><desc>TX</desc>
<path d="M45655 14249
L45655 13889
" />
<path d="M46284 14069
L45655 14069
" />
<path d="M45655 13739
L46284 13319
" />
<path d="M45655 13319
L46284 13739
" />
</g></g>
<g style="fill:#C00000; fill-opacity:0.0; 
stroke:#C00000; stroke-width:60.000000; stroke-opacity:1; 
stroke-linecap:round; stroke-linejoin:round;">
<path d="M46000 31000
L46000 32000
" />
</g>
<g style="fill:#C0C0C0; fill-opacity:0.0; 
stroke:#C0C0C0; stroke-width:60.000000; stroke-opacity:1; 
stroke-linecap:round; stroke-linejoin:round;">
<g transform="rotate(-90.000000 46000.000000 30800.000000)">
<text x="46000.000000" y="31114.960630"
textLength="1559.803150" font-size="839.881890" lengthAdjust="spacingAndGlyphs"
text-anchor="start" opacity="0">VIN</text>
</g>
<g class="stroked-text"><desc>VIN</desc>
<path d="M45655 30710
L46284 30500
L45655 30290
" />
<path d="M46284 30080
L45655 30080
" />
<path d="M46284 29780
L45655 29780
L46284 29420
L45655 29420
" />
</g></g>
<g style="fill:#C0C0C0; fill-opacity:0.0; 
stroke:#C0C0C0; stroke-width:236.220472; stroke-opacity:1; 
stroke-linecap:round; stroke-linejoin:round;">
<text x="28789.094488" y="22090.551181"
textLength="14401.968504" font-size="1574.803150" lengthAdjust="spacingAndGlyphs"
text-anchor="middle" opacity="0">Seeeduino Nano</text>
<g class="stroked-text"><desc>Seeeduino Nano</desc>
<path d="M21843 21978
L22011 22034
L22293 22034
L22405 21978
L22461 21921
L22517 21809
L22517 21696
L22461 21584
L22405 21528
L22293 21471
L22068 21415
L21955 21359
L21899 21303
L21843 21190
L21843 21078
L21899 20965
L21955 20909
L22068 20853
L22349 20853
L22517 20909
" />
<path d="M23474 21978
L23361 22034
L23136 22034
L23024 21978
L22967 21865
L22967 21415
L23024 21303
L23136 21246
L23361 21246
L23474 21303
L23530 21415
L23530 21528
L22967 21640
" />
<path d="M24486 21978
L24374 22034
L24149 22034
L24036 21978
L23980 21865
L23980 21415
L24036 21303
L24149 21246
L24374 21246
L24486 21303
L24542 21415
L24542 21528
L23980 21640
" />
<path d="M25498 21978
L25386 22034
L25161 22034
L25048 21978
L24992 21865
L24992 21415
L25048 21303
L25161 21246
L25386 21246
L25498 21303
L25555 21415
L25555 21528
L24992 21640
" />
<path d="M26567 22034
L26567 20853
" />
<path d="M26567 21978
L26455 22034
L26230 22034
L26117 21978
L26061 21921
L26005 21809
L26005 21471
L26061 21359
L26117 21303
L26230 21246
L26455 21246
L26567 21303
" />
<path d="M27636 21246
L27636 22034
" />
<path d="M27129 21246
L27129 21865
L27186 21978
L27298 22034
L27467 22034
L27579 21978
L27636 21921
" />
<path d="M28198 22034
L28198 21246
" />
<path d="M28198 20853
L28142 20909
L28198 20965
L28254 20909
L28198 20853
L28198 20965
" />
<path d="M28760 21246
L28760 22034
" />
<path d="M28760 21359
L28817 21303
L28929 21246
L29098 21246
L29210 21303
L29267 21415
L29267 22034
" />
<path d="M29998 22034
L29885 21978
L29829 21921
L29773 21809
L29773 21471
L29829 21359
L29885 21303
L29998 21246
L30167 21246
L30279 21303
L30335 21359
L30392 21471
L30392 21809
L30335 21921
L30279 21978
L30167 22034
L29998 22034
" />
<path d="M31798 22034
L31798 20853
L32472 22034
L32472 20853
" />
<path d="M33541 22034
L33541 21415
L33485 21303
L33372 21246
L33147 21246
L33035 21303
" />
<path d="M33541 21978
L33429 22034
L33147 22034
L33035 21978
L32979 21865
L32979 21753
L33035 21640
L33147 21584
L33429 21584
L33541 21528
" />
<path d="M34104 21246
L34104 22034
" />
<path d="M34104 21359
L34160 21303
L34272 21246
L34441 21246
L34553 21303
L34610 21415
L34610 22034
" />
<path d="M35341 22034
L35228 21978
L35172 21921
L35116 21809
L35116 21471
L35172 21359
L35228 21303
L35341 21246
L35510 21246
L35622 21303
L35678 21359
L35735 21471
L35735 21809
L35678 21921
L35622 21978
L35510 22034
L35341 22034
" />
</g></g>
</g>
<g style="fill:#C0C0C0; fill-opacity:0.0; 
stroke:#C0C0C0; stroke-width:62.519685; stroke-opacity:1; 
stroke-linecap:round; stroke-linejoin:round;">
</g>
<g style="fill:#C0C0C0; fill-opacity:0.0; 
stroke:#C0C0C0; stroke-width:60.000000; stroke-opacity:1; 
stroke-linecap:round; stroke-linejoin:round;">
</g>
<g style="fill:#A0A000; fill-opacity:0.0; 
stroke:#A0A000; stroke-width:60.000000; stroke-opacity:1; 
stroke-linecap:round; stroke-linejoin:round;">
<g transform="rotate(-90.000000 58000.000000 14575.000000)">
<text x="58000.000000" y="14825.000000"
textLength="1283.267717" font-size="666.653543" lengthAdjust="spacingAndGlyphs"
text-anchor="end" opacity="0">D7</text>
</g>
<g class="stroked-text"><desc>D7</desc>
<path d="M58226 15462
L57726 15462
L57726 15343
L57750 15271
L57797 15224
L57845 15200
L57940 15176
L58011 15176
L58107 15200
L58154 15224
L58202 15271
L58226 15343
L58226 15462
" />
<path d="M57726 15009
L57726 14676
L58226 14890
" />
</g><path style="fill:#A0A000; fill-opacity:0.0; 
stroke:#A0A000; stroke-width:60.000000; stroke-opacity:1; 
stroke-linecap:round; stroke-linejoin:round;fill:none"
d="M 58000.000000,14000.000000
57750.000000,14250.000000
58000.000000,14500.000000
58250.000000,14250.000000
Z" /> 
</g>
<g style="fill:#A0A000; fill-opacity:0.0; 
stroke:#A0A000; stroke-width:62.519685; stroke-opacity:1; 
stroke-linecap:round; stroke-linejoin:round;">
</g>
<g style="fill:#A0A000; fill-opacity:0.0; 
stroke:#A0A000; stroke-width:60.000000; stroke-opacity:1; 
stroke-linecap:round; stroke-linejoin:round;">
<text x="75925.000000" y="18250.000000"
textLength="1512.362205" font-size="666.653543" lengthAdjust="spacingAndGlyphs"
text-anchor="end" opacity="0">D11</text>
<g class="stroked-text"><desc>D11</desc>
<path d="M74561 18226
L74561 17726
L74680 17726
L74752 17750
L74799 17797
L74823 17845
L74847 17940
L74847 18011
L74823 18107
L74799 18154
L74752 18202
L74680 18226
L74561 18226
" />
<path d="M75323 18226
L75037 18226
" />
<path d="M75180 18226
L75180 17726
L75133 17797
L75085 17845
L75037 17869
" />
<path d="M75799 18226
L75514 18226
" />
<path d="M75656 18226
L75656 17726
L75609 17797
L75561 17845
L75514 17869
" />
</g><path style="fill:#A0A000; fill-opacity:0.0; 
stroke:#A0A000; stroke-width:60.000000; stroke-opacity:1; 
stroke-linecap:round; stroke-linejoin:round;fill:none"
d="M 76500.000000,18000.000000
76250.000000,17750.000000
76000.000000,18000.000000
76250.000000,18250.000000
Z" /> 
</g>
<g style="fill:#00A000; fill-opacity:0.0; 
stroke:#00A000; stroke-width:60.000000; stroke-opacity:1; 
stroke-linecap:round; stroke-linejoin:round;">
<path d="M74000 23500
L75000 23500
" />
<path d="M74000 21500
L74000 16000
" />
<path d="M81500 20000
L81500 21000
" />
<path d="M76500 18000
L78500 18000
" />
<path d="M74000 16000
L81500 16000
" />
<path d="M58000 12000
L58000 14000
" />
<path d="M55500 12000
L55500 13500
" />
<path d="M53000 12000
L53000 13000
" />
</g> 
</svg>
