<?xml version="1.0" standalone="no"?>
 <!DOCTYPE svg PUBLIC "-//W3C//DTD SVG 1.1//EN" 
 "http://www.w3.org/Graphics/SVG/1.1/DTD/svg11.dtd"> 
<svg
  xmlns:svg="http://www.w3.org/2000/svg"
  xmlns="http://www.w3.org/2000/svg"
  xmlns:xlink="http://www.w3.org/1999/xlink"
  version="1.1"
  width="9.999980cm" height="5.999480cm" viewBox="0 0 39370 23620">
<title>SVG Picture created as a6.svg date 2022/03/01 23:39:39 </title>
  <desc>Picture generated by Eeschema-SVG </desc>
<g style="fill:#000000; fill-opacity:1.000000;stroke:#000000; stroke-opacity:1.000000;
stroke-linecap:round; stroke-linejoin:round;"
 transform="translate(0 0) scale(1 1)">
</g>
<g style="fill:#ECEFF4; fill-opacity:0.0; 
stroke:#ECEFF4; stroke-width:0.000000; stroke-opacity:1; 
stroke-linecap:round; stroke-linejoin:round;">
</g>
<g style="fill:#ECEFF4; fill-opacity:1.0; 
stroke:#ECEFF4; stroke-width:0.039370; stroke-opacity:1; 
stroke-linecap:round; stroke-linejoin:round;">
<rect x="0.000000" y="0.000000" width="39370.000000" height="23620.000000" rx="0.000000" />
</g>
<g style="fill:#ECEFF4; fill-opacity:1.0; 
stroke:#ECEFF4; stroke-width:60.000000; stroke-opacity:1; 
stroke-linecap:round; stroke-linejoin:round;">
<g >
</g>
<g style="fill:#4C566A; fill-opacity:1.0; 
stroke:#4C566A; stroke-width:60.000000; stroke-opacity:1; 
stroke-linecap:round; stroke-linejoin:round;">
</g>
<g style="fill:#4C566A; fill-opacity:0.0; 
stroke:#4C566A; stroke-width:100.000000; stroke-opacity:1; 
stroke-linecap:round; stroke-linejoin:round;">
<path style="fill:#4C566A; fill-opacity:0.0; 
stroke:#4C566A; stroke-width:100.000000; stroke-opacity:1; 
stroke-linecap:round; stroke-linejoin:round;fill:none"
d="M 20000.000000,19500.000000
20000.000000,18500.000000
" /> 
</g>
<g style="fill:#4C566A; fill-opacity:0.0; 
stroke:#4C566A; stroke-width:60.000000; stroke-opacity:1; 
stroke-linecap:round; stroke-linejoin:round;">
<path style="fill:#4C566A; fill-opacity:0.0; 
stroke:#4C566A; stroke-width:60.000000; stroke-opacity:1; 
stroke-linecap:round; stroke-linejoin:round;fill:none"
d="M 20000.000000,19000.000000
21000.000000,19000.000000
" /> 
</g>
<g style="fill:#4C566A; fill-opacity:0.0; 
stroke:#4C566A; stroke-width:100.000000; stroke-opacity:1; 
stroke-linecap:round; stroke-linejoin:round;">
<path style="fill:#4C566A; fill-opacity:0.0; 
stroke:#4C566A; stroke-width:100.000000; stroke-opacity:1; 
stroke-linecap:round; stroke-linejoin:round;fill:none"
d="M 21000.000000,19500.000000
21000.000000,18500.000000
20000.000000,19000.000000
Z" /> 
</g>
<g style="fill:#4C566A; fill-opacity:0.0; 
stroke:#4C566A; stroke-width:60.000000; stroke-opacity:1; 
stroke-linecap:round; stroke-linejoin:round;">
<path style="fill:#4C566A; fill-opacity:0.0; 
stroke:#4C566A; stroke-width:60.000000; stroke-opacity:1; 
stroke-linecap:round; stroke-linejoin:round;fill:none"
d="M 19300.000000,19300.000000
18700.000000,19900.000000
19000.000000,19900.000000
18700.000000,19900.000000
18700.000000,19600.000000
" /> 
<path style="fill:#4C566A; fill-opacity:0.0; 
stroke:#4C566A; stroke-width:60.000000; stroke-opacity:1; 
stroke-linecap:round; stroke-linejoin:round;fill:none"
d="M 19800.000000,19300.000000
19200.000000,19900.000000
19500.000000,19900.000000
19200.000000,19900.000000
19200.000000,19600.000000
" /> 
<path d="M20000 19000
L19000 19000
" />
<path d="M21000 19000
L22000 19000
" />
</g>
<g style="fill:#5E81AC; fill-opacity:0.0; 
stroke:#5E81AC; stroke-width:60.000000; stroke-opacity:1; 
stroke-linecap:round; stroke-linejoin:round;">
<text x="19875.000000" y="16750.000000"
textLength="1058.582677" font-size="666.653543" lengthAdjust="spacingAndGlyphs"
text-anchor="middle" opacity="0">D?</text>
<g class="stroked-text"><desc>D?</desc>
<path d="M19529 16726
L19529 16226
L19648 16226
L19720 16250
L19767 16297
L19791 16345
L19815 16440
L19815 16511
L19791 16607
L19767 16654
L19720 16702
L19648 16726
L19529 16726
" />
<path d="M20101 16678
L20125 16702
L20101 16726
L20077 16702
L20101 16678
L20101 16726
" />
<path d="M20005 16250
L20053 16226
L20172 16226
L20220 16250
L20244 16297
L20244 16345
L20220 16392
L20196 16416
L20148 16440
L20125 16464
L20101 16511
L20101 16535
" />
</g><text x="19875.000000" y="17750.000000"
textLength="1417.125984" font-size="666.653543" lengthAdjust="spacingAndGlyphs"
text-anchor="middle" opacity="0">LED</text>
<g class="stroked-text"><desc>LED</desc>
<path d="M19553 17726
L19315 17726
L19315 17226
" />
<path d="M19720 17464
L19886 17464
" />
<path d="M19958 17726
L19720 17726
L19720 17226
L19958 17226
" />
<path d="M20172 17726
L20172 17226
L20291 17226
L20363 17250
L20410 17297
L20434 17345
L20458 17440
L20458 17511
L20434 17607
L20410 17654
L20363 17702
L20291 17726
L20172 17726
" />
</g></g>
</g>
<g style="fill:#5E81AC; fill-opacity:0.0; 
stroke:#5E81AC; stroke-width:60.000000; stroke-opacity:1; 
stroke-linecap:round; stroke-linejoin:round;">
<g >
</g>
<g style="fill:#4C566A; fill-opacity:0.0; 
stroke:#4C566A; stroke-width:60.000000; stroke-opacity:1; 
stroke-linecap:round; stroke-linejoin:round;">
<path style="fill:#4C566A; fill-opacity:0.0; 
stroke:#4C566A; stroke-width:60.000000; stroke-opacity:1; 
stroke-linecap:round; stroke-linejoin:round;fill:none"
d="M 15750.000000,19750.000000
16250.000000,19750.000000
" /> 
<path style="fill:#4C566A; fill-opacity:0.0; 
stroke:#4C566A; stroke-width:60.000000; stroke-opacity:1; 
stroke-linecap:round; stroke-linejoin:round;fill:none"
d="M 15950.000000,20000.000000
16050.000000,20000.000000
" /> 
<path style="fill:#4C566A; fill-opacity:0.0; 
stroke:#4C566A; stroke-width:60.000000; stroke-opacity:1; 
stroke-linecap:round; stroke-linejoin:round;fill:none"
d="M 16000.000000,19500.000000
16000.000000,19000.000000
" /> 
<path style="fill:#4C566A; fill-opacity:0.0; 
stroke:#4C566A; stroke-width:60.000000; stroke-opacity:1; 
stroke-linecap:round; stroke-linejoin:round;fill:none"
d="M 16500.000000,19500.000000
15500.000000,19500.000000
" /> 
</g>
</g>
<g style="fill:#4C566A; fill-opacity:0.0; 
stroke:#4C566A; stroke-width:60.000000; stroke-opacity:1; 
stroke-linecap:round; stroke-linejoin:round;">
<g >
<path style="fill:#4C566A; fill-opacity:0.0; 
stroke:#4C566A; stroke-width:60.000000; stroke-opacity:1; 
stroke-linecap:round; stroke-linejoin:round;fill:none"
d="M 22000.000000,17000.000000
22400.000000,17150.000000
22000.000000,17300.000000
21600.000000,17450.000000
22000.000000,17600.000000
" /> 
<path style="fill:#4C566A; fill-opacity:0.0; 
stroke:#4C566A; stroke-width:60.000000; stroke-opacity:1; 
stroke-linecap:round; stroke-linejoin:round;fill:none"
d="M 22000.000000,16400.000000
22400.000000,16550.000000
22000.000000,16700.000000
21600.000000,16850.000000
22000.000000,17000.000000
" /> 
<path d="M22000 16400
L22000 16000
" />
<path d="M22000 17600
L22000 18000
" />
</g>
<g style="fill:#5E81AC; fill-opacity:0.0; 
stroke:#5E81AC; stroke-width:60.000000; stroke-opacity:1; 
stroke-linecap:round; stroke-linejoin:round;">
<text x="24531.259843" y="16749.960630"
textLength="3060.000000" font-size="666.653543" lengthAdjust="spacingAndGlyphs"
text-anchor="middle" opacity="0">220ohm</text>
<g class="stroked-text"><desc>220ohm</desc>
<path d="M23126 16273
L23150 16249
L23197 16226
L23316 16226
L23364 16249
L23388 16273
L23412 16321
L23412 16368
L23388 16440
L23102 16726
L23412 16726
" />
<path d="M23602 16273
L23626 16249
L23674 16226
L23793 16226
L23840 16249
L23864 16273
L23888 16321
L23888 16368
L23864 16440
L23578 16726
L23888 16726
" />
<path d="M24197 16226
L24245 16226
L24293 16249
L24316 16273
L24340 16321
L24364 16416
L24364 16535
L24340 16630
L24316 16678
L24293 16702
L24245 16726
L24197 16726
L24150 16702
L24126 16678
L24102 16630
L24078 16535
L24078 16416
L24102 16321
L24126 16273
L24150 16249
L24197 16226
" />
<path d="M24650 16726
L24602 16702
L24578 16678
L24555 16630
L24555 16488
L24578 16440
L24602 16416
L24650 16392
L24721 16392
L24769 16416
L24793 16440
L24816 16488
L24816 16630
L24793 16678
L24769 16702
L24721 16726
L24650 16726
" />
<path d="M25031 16726
L25031 16226
" />
<path d="M25245 16726
L25245 16464
L25221 16416
L25174 16392
L25102 16392
L25055 16416
L25031 16440
" />
<path d="M25483 16726
L25483 16392
" />
<path d="M25483 16440
L25507 16416
L25555 16392
L25626 16392
L25674 16416
L25697 16464
L25697 16726
" />
<path d="M25697 16464
L25721 16416
L25769 16392
L25840 16392
L25888 16416
L25912 16464
L25912 16726
" />
</g><text x="25221.732283" y="17749.960630"
textLength="4440.944882" font-size="666.653543" lengthAdjust="spacingAndGlyphs"
text-anchor="middle" opacity="0">R_Small_US</text>
<g class="stroked-text"><desc>R_Small_US</desc>
<path d="M23435 17726
L23269 17488
" />
<path d="M23150 17726
L23150 17226
L23340 17226
L23388 17249
L23412 17273
L23435 17321
L23435 17392
L23412 17440
L23388 17464
L23340 17488
L23150 17488
" />
<path d="M23531 17773
L23912 17773
" />
<path d="M24007 17702
L24078 17726
L24197 17726
L24245 17702
L24269 17678
L24293 17630
L24293 17583
L24269 17535
L24245 17511
L24197 17488
L24102 17464
L24055 17440
L24031 17416
L24007 17368
L24007 17321
L24031 17273
L24055 17249
L24102 17226
L24221 17226
L24293 17249
" />
<path d="M24507 17726
L24507 17392
" />
<path d="M24507 17440
L24531 17416
L24578 17392
L24650 17392
L24697 17416
L24721 17464
L24721 17726
" />
<path d="M24721 17464
L24745 17416
L24793 17392
L24864 17392
L24912 17416
L24935 17464
L24935 17726
" />
<path d="M25388 17726
L25388 17464
L25364 17416
L25316 17392
L25221 17392
L25174 17416
" />
<path d="M25388 17702
L25340 17726
L25221 17726
L25174 17702
L25150 17654
L25150 17607
L25174 17559
L25221 17535
L25340 17535
L25388 17511
" />
<path d="M25697 17726
L25650 17702
L25626 17654
L25626 17226
" />
<path d="M25959 17726
L25912 17702
L25888 17654
L25888 17226
" />
<path d="M26031 17773
L26412 17773
" />
<path d="M26531 17226
L26531 17630
L26555 17678
L26578 17702
L26626 17726
L26721 17726
L26769 17702
L26793 17678
L26816 17630
L26816 17226
" />
<path d="M27031 17702
L27102 17726
L27221 17726
L27269 17702
L27293 17678
L27316 17630
L27316 17583
L27293 17535
L27269 17511
L27221 17488
L27126 17464
L27078 17440
L27055 17416
L27031 17368
L27031 17321
L27055 17273
L27078 17249
L27126 17226
L27245 17226
L27316 17249
" />
</g></g>
</g>
<g style="fill:#5E81AC; fill-opacity:0.0; 
stroke:#5E81AC; stroke-width:60.000000; stroke-opacity:1; 
stroke-linecap:round; stroke-linejoin:round;">
<g >
</g>
<g style="fill:#4C566A; fill-opacity:0.0; 
stroke:#4C566A; stroke-width:60.000000; stroke-opacity:1; 
stroke-linecap:round; stroke-linejoin:round;">
<path style="fill:#4C566A; fill-opacity:0.0; 
stroke:#4C566A; stroke-width:60.000000; stroke-opacity:1; 
stroke-linecap:round; stroke-linejoin:round;fill:none"
d="M 26250.000000,17250.000000
26750.000000,17250.000000
" /> 
<path style="fill:#4C566A; fill-opacity:0.0; 
stroke:#4C566A; stroke-width:60.000000; stroke-opacity:1; 
stroke-linecap:round; stroke-linejoin:round;fill:none"
d="M 26450.000000,17500.000000
26550.000000,17500.000000
" /> 
<path style="fill:#4C566A; fill-opacity:0.0; 
stroke:#4C566A; stroke-width:60.000000; stroke-opacity:1; 
stroke-linecap:round; stroke-linejoin:round;fill:none"
d="M 26500.000000,17000.000000
26500.000000,16500.000000
" /> 
<path style="fill:#4C566A; fill-opacity:0.0; 
stroke:#4C566A; stroke-width:60.000000; stroke-opacity:1; 
stroke-linecap:round; stroke-linejoin:round;fill:none"
d="M 27000.000000,17000.000000
26000.000000,17000.000000
" /> 
</g>
</g>
<g style="fill:#4C566A; fill-opacity:0.0; 
stroke:#4C566A; stroke-width:60.000000; stroke-opacity:1; 
stroke-linecap:round; stroke-linejoin:round;">
<g >
</g>
<g style="fill:#E5E9F0; fill-opacity:0.0; 
stroke:#E5E9F0; stroke-width:60.000000; stroke-opacity:1; 
stroke-linecap:round; stroke-linejoin:round;">
</g>
<g style="fill:#E5E9F0; fill-opacity:0.6; 
stroke:#E5E9F0; stroke-width:0.039370; stroke-opacity:1; 
stroke-linecap:round; stroke-linejoin:round;">
<rect x="25500.000000" y="7500.000000" width="7500.000000" height="5500.000000" rx="0.000000" />
</g>
<g style="fill:#4C566A; fill-opacity:0.6; 
stroke:#4C566A; stroke-width:0.039370; stroke-opacity:1; 
stroke-linecap:round; stroke-linejoin:round;">
</g>
<g style="fill:#4C566A; fill-opacity:0.0; 
stroke:#4C566A; stroke-width:60.000000; stroke-opacity:1; 
stroke-linecap:round; stroke-linejoin:round;">
<rect x="25500.000000" y="7500.000000" width="7500.000000" height="5500.000000" rx="0.000000" />
<rect x="25500.000000" y="7500.000000" width="7500.000000" height="5500.000000" rx="0.000000" />
<path d="M26500 13000
L26500 14000
" />
</g>
<g style="fill:#434C5E; fill-opacity:0.0; 
stroke:#434C5E; stroke-width:60.000000; stroke-opacity:1; 
stroke-linecap:round; stroke-linejoin:round;">
<g transform="rotate(-90.000000 26500.000000 12800.000000)">
<text x="26500.000000" y="13050.000000"
textLength="1583.818898" font-size="666.653543" lengthAdjust="spacingAndGlyphs"
text-anchor="start" opacity="0">GND</text>
</g>
<g class="stroked-text"><desc>GND</desc>
<path d="M26250 12389
L26226 12436
L26226 12508
L26250 12579
L26297 12627
L26345 12650
L26440 12674
L26511 12674
L26607 12650
L26654 12627
L26702 12579
L26726 12508
L26726 12460
L26702 12389
L26678 12365
L26511 12365
L26511 12460
" />
<path d="M26726 12150
L26226 12150
L26726 11865
L26226 11865
" />
<path d="M26726 11627
L26226 11627
L26226 11508
L26250 11436
L26297 11389
L26345 11365
L26440 11341
L26511 11341
L26607 11365
L26654 11389
L26702 11436
L26726 11508
L26726 11627
" />
</g><g transform="rotate(-90.000000 26400.000000 13500.000000)">
<text x="26400.000000" y="13500.000000"
textLength="536.181102" font-size="666.653543" lengthAdjust="spacingAndGlyphs"
text-anchor="middle" opacity="0">1</text>
</g>
<g class="stroked-text"><desc>1</desc>
<path d="M26376 13357
L26376 13642
" />
<path d="M26376 13500
L25876 13500
L25947 13547
L25995 13595
L26019 13642
" />
</g></g>
<g style="fill:#4C566A; fill-opacity:0.0; 
stroke:#4C566A; stroke-width:60.000000; stroke-opacity:1; 
stroke-linecap:round; stroke-linejoin:round;">
<path d="M28000 13000
L28000 14000
" />
</g>
<g style="fill:#434C5E; fill-opacity:0.0; 
stroke:#434C5E; stroke-width:60.000000; stroke-opacity:1; 
stroke-linecap:round; stroke-linejoin:round;">
<g transform="rotate(-90.000000 28000.000000 12800.000000)">
<text x="28000.000000" y="13050.000000"
textLength="1583.818898" font-size="666.653543" lengthAdjust="spacingAndGlyphs"
text-anchor="start" opacity="0">+5V</text>
</g>
<g class="stroked-text"><desc>+5V</desc>
<path d="M28035 12650
L28035 12270
" />
<path d="M28226 12460
L27845 12460
" />
<path d="M27726 11793
L27726 12031
L27964 12055
L27940 12031
L27916 11984
L27916 11865
L27940 11817
L27964 11793
L28011 11770
L28130 11770
L28178 11793
L28202 11817
L28226 11865
L28226 11984
L28202 12031
L28178 12055
" />
<path d="M27726 11627
L28226 11460
L27726 11293
" />
</g><g transform="rotate(-90.000000 27900.000000 13500.000000)">
<text x="27900.000000" y="13500.000000"
textLength="536.181102" font-size="666.653543" lengthAdjust="spacingAndGlyphs"
text-anchor="middle" opacity="0">2</text>
</g>
<g class="stroked-text"><desc>2</desc>
<path d="M27423 13642
L27400 13619
L27376 13571
L27376 13452
L27400 13404
L27423 13380
L27471 13357
L27519 13357
L27590 13380
L27876 13666
L27876 13357
" />
</g></g>
<g style="fill:#4C566A; fill-opacity:0.0; 
stroke:#4C566A; stroke-width:60.000000; stroke-opacity:1; 
stroke-linecap:round; stroke-linejoin:round;">
<path d="M29500 13000
L29500 14000
" />
</g>
<g style="fill:#434C5E; fill-opacity:0.0; 
stroke:#434C5E; stroke-width:60.000000; stroke-opacity:1; 
stroke-linecap:round; stroke-linejoin:round;">
<g transform="rotate(-90.000000 29500.000000 12800.000000)">
<text x="29500.000000" y="13050.000000"
textLength="1393.346457" font-size="666.653543" lengthAdjust="spacingAndGlyphs"
text-anchor="start" opacity="0">VRx</text>
</g>
<g class="stroked-text"><desc>VRx</desc>
<path d="M29226 12722
L29726 12555
L29226 12389
" />
<path d="M29726 11936
L29488 12103
" />
<path d="M29726 12222
L29226 12222
L29226 12031
L29250 11984
L29273 11960
L29321 11936
L29392 11936
L29440 11960
L29464 11984
L29488 12031
L29488 12222
" />
<path d="M29726 11770
L29392 11508
" />
<path d="M29392 11770
L29726 11508
" />
</g><g transform="rotate(-90.000000 29400.000000 13500.000000)">
<text x="29400.000000" y="13500.000000"
textLength="536.181102" font-size="666.653543" lengthAdjust="spacingAndGlyphs"
text-anchor="middle" opacity="0">3</text>
</g>
<g class="stroked-text"><desc>3</desc>
<path d="M28876 13666
L28876 13357
L29066 13523
L29066 13452
L29090 13404
L29114 13380
L29161 13357
L29280 13357
L29328 13380
L29352 13404
L29376 13452
L29376 13595
L29352 13642
L29328 13666
" />
</g></g>
<g style="fill:#4C566A; fill-opacity:0.0; 
stroke:#4C566A; stroke-width:60.000000; stroke-opacity:1; 
stroke-linecap:round; stroke-linejoin:round;">
<path d="M31000 13000
L31000 14000
" />
</g>
<g style="fill:#434C5E; fill-opacity:0.0; 
stroke:#434C5E; stroke-width:60.000000; stroke-opacity:1; 
stroke-linecap:round; stroke-linejoin:round;">
<g transform="rotate(-90.000000 31000.000000 12800.000000)">
<text x="31000.000000" y="13050.000000"
textLength="1369.527559" font-size="666.653543" lengthAdjust="spacingAndGlyphs"
text-anchor="start" opacity="0">VRy</text>
</g>
<g class="stroked-text"><desc>VRy</desc>
<path d="M30726 12722
L31226 12555
L30726 12389
" />
<path d="M31226 11936
L30988 12103
" />
<path d="M31226 12222
L30726 12222
L30726 12031
L30750 11984
L30773 11960
L30821 11936
L30892 11936
L30940 11960
L30964 11984
L30988 12031
L30988 12222
" />
<path d="M30892 11770
L31226 11650
" />
<path d="M30892 11531
L31226 11650
L31345 11698
L31369 11722
L31392 11770
" />
</g><g transform="rotate(-90.000000 30900.000000 13500.000000)">
<text x="30900.000000" y="13500.000000"
textLength="536.181102" font-size="666.653543" lengthAdjust="spacingAndGlyphs"
text-anchor="middle" opacity="0">4</text>
</g>
<g class="stroked-text"><desc>4</desc>
<path d="M30542 13404
L30876 13404
" />
<path d="M30352 13523
L30709 13642
L30709 13333
" />
</g></g>
<g style="fill:#4C566A; fill-opacity:0.0; 
stroke:#4C566A; stroke-width:60.000000; stroke-opacity:1; 
stroke-linecap:round; stroke-linejoin:round;">
<path d="M32500 13000
L32500 14000
" />
</g>
<g style="fill:#434C5E; fill-opacity:0.0; 
stroke:#434C5E; stroke-width:60.000000; stroke-opacity:1; 
stroke-linecap:round; stroke-linejoin:round;">
<g transform="rotate(-90.000000 32500.000000 12800.000000)">
<text x="32500.000000" y="13050.000000"
textLength="1107.637795" font-size="666.653543" lengthAdjust="spacingAndGlyphs"
text-anchor="start" opacity="0">MS</text>
</g>
<g class="stroked-text"><desc>MS</desc>
<path d="M32726 12650
L32226 12650
L32583 12484
L32226 12317
L32726 12317
" />
<path d="M32702 12103
L32726 12031
L32726 11912
L32702 11865
L32678 11841
L32630 11817
L32583 11817
L32535 11841
L32511 11865
L32488 11912
L32464 12008
L32440 12055
L32416 12079
L32369 12103
L32321 12103
L32273 12079
L32250 12055
L32226 12008
L32226 11889
L32250 11817
" />
</g><g transform="rotate(-90.000000 32400.000000 13500.000000)">
<text x="32400.000000" y="13500.000000"
textLength="536.181102" font-size="666.653543" lengthAdjust="spacingAndGlyphs"
text-anchor="middle" opacity="0">5</text>
</g>
<g class="stroked-text"><desc>5</desc>
<path d="M31876 13380
L31876 13619
L32114 13642
L32090 13619
L32066 13571
L32066 13452
L32090 13404
L32114 13380
L32161 13357
L32280 13357
L32328 13380
L32352 13404
L32376 13452
L32376 13571
L32352 13619
L32328 13642
" />
</g></g>
<g style="fill:#5E81AC; fill-opacity:0.0; 
stroke:#5E81AC; stroke-width:60.000000; stroke-opacity:1; 
stroke-linecap:round; stroke-linejoin:round;">
<text x="29364.566929" y="10250.000000"
textLength="4726.653543" font-size="666.653543" lengthAdjust="spacingAndGlyphs"
text-anchor="middle" opacity="0">analog_stick</text>
<g class="stroked-text"><desc>analog_stick</desc>
<path d="M27364 10226
L27364 9964
L27340 9916
L27293 9892
L27197 9892
L27150 9916
" />
<path d="M27364 10202
L27316 10226
L27197 10226
L27150 10202
L27126 10154
L27126 10107
L27150 10059
L27197 10035
L27316 10035
L27364 10011
" />
<path d="M27602 9892
L27602 10226
" />
<path d="M27602 9940
L27626 9916
L27674 9892
L27745 9892
L27793 9916
L27816 9964
L27816 10226
" />
<path d="M28269 10226
L28269 9964
L28245 9916
L28197 9892
L28102 9892
L28055 9916
" />
<path d="M28269 10202
L28221 10226
L28102 10226
L28055 10202
L28031 10154
L28031 10107
L28055 10059
L28102 10035
L28221 10035
L28269 10011
" />
<path d="M28578 10226
L28531 10202
L28507 10154
L28507 9726
" />
<path d="M28840 10226
L28793 10202
L28769 10178
L28745 10130
L28745 9988
L28769 9940
L28793 9916
L28840 9892
L28912 9892
L28959 9916
L28983 9940
L29007 9988
L29007 10130
L28983 10178
L28959 10202
L28912 10226
L28840 10226
" />
<path d="M29435 9892
L29435 10297
L29412 10345
L29388 10369
L29340 10392
L29269 10392
L29221 10369
" />
<path d="M29435 10202
L29388 10226
L29293 10226
L29245 10202
L29221 10178
L29197 10130
L29197 9988
L29221 9940
L29245 9916
L29293 9892
L29388 9892
L29435 9916
" />
<path d="M29555 10273
L29935 10273
" />
<path d="M30031 10202
L30078 10226
L30174 10226
L30221 10202
L30245 10154
L30245 10130
L30221 10083
L30174 10059
L30102 10059
L30055 10035
L30031 9988
L30031 9964
L30055 9916
L30102 9892
L30174 9892
L30221 9916
" />
<path d="M30388 9892
L30578 9892
" />
<path d="M30459 9726
L30459 10154
L30483 10202
L30531 10226
L30578 10226
" />
<path d="M30745 10226
L30745 9892
" />
<path d="M30745 9726
L30721 9750
L30745 9773
L30769 9750
L30745 9726
L30745 9773
" />
<path d="M31197 10202
L31150 10226
L31055 10226
L31007 10202
L30983 10178
L30959 10130
L30959 9988
L30983 9940
L31007 9916
L31055 9892
L31150 9892
L31197 9916
" />
<path d="M31412 10226
L31412 9726
" />
<path d="M31459 10035
L31602 10226
" />
<path d="M31602 9892
L31412 10083
" />
</g></g>
</g>
<g style="fill:#5E81AC; fill-opacity:0.0; 
stroke:#5E81AC; stroke-width:60.000000; stroke-opacity:1; 
stroke-linecap:round; stroke-linejoin:round;">
<g >
</g>
<g style="fill:#4C566A; fill-opacity:0.0; 
stroke:#4C566A; stroke-width:60.000000; stroke-opacity:1; 
stroke-linecap:round; stroke-linejoin:round;">
</g>
<g style="fill:#E5E9F0; fill-opacity:0.0; 
stroke:#E5E9F0; stroke-width:60.000000; stroke-opacity:1; 
stroke-linecap:round; stroke-linejoin:round;">
</g>
<g style="fill:#E5E9F0; fill-opacity:0.6; 
stroke:#E5E9F0; stroke-width:0.039370; stroke-opacity:1; 
stroke-linecap:round; stroke-linejoin:round;">
<path style="fill:#E5E9F0; fill-opacity:0.6; 
stroke:#E5E9F0; stroke-width:0.039370; stroke-opacity:1; 
stroke-linecap:round; stroke-linejoin:round;fill-rule:evenodd;"
d="M 5500.000000,7000.000000
15000.000000,7000.000000
16000.000000,7500.000000
16000.000000,8500.000000
16500.000000,9000.000000
16500.000000,13500.000000
16000.000000,14000.000000
5500.000000,14000.000000
5000.000000,14000.000000
5000.000000,7000.000000
Z" /> 
</g>
<g style="fill:#4C566A; fill-opacity:0.6; 
stroke:#4C566A; stroke-width:0.039370; stroke-opacity:1; 
stroke-linecap:round; stroke-linejoin:round;">
</g>
<g style="fill:#4C566A; fill-opacity:0.0; 
stroke:#4C566A; stroke-width:60.000000; stroke-opacity:1; 
stroke-linecap:round; stroke-linejoin:round;">
<path style="fill:#4C566A; fill-opacity:0.0; 
stroke:#4C566A; stroke-width:60.000000; stroke-opacity:1; 
stroke-linecap:round; stroke-linejoin:round;fill:none"
d="M 5500.000000,7000.000000
15000.000000,7000.000000
16000.000000,7500.000000
16000.000000,8500.000000
16500.000000,9000.000000
16500.000000,13500.000000
16000.000000,14000.000000
5500.000000,14000.000000
5000.000000,14000.000000
5000.000000,7000.000000
Z" /> 
<path style="fill:#4C566A; fill-opacity:0.0; 
stroke:#4C566A; stroke-width:60.000000; stroke-opacity:1; 
stroke-linecap:round; stroke-linejoin:round;fill:none"
d="M 5500.000000,7000.000000
15000.000000,7000.000000
16000.000000,7500.000000
16000.000000,8500.000000
16500.000000,9000.000000
16500.000000,13500.000000
16000.000000,14000.000000
5500.000000,14000.000000
5000.000000,14000.000000
5000.000000,7000.000000
Z" /> 
<path d="M7500 13000
L7500 14000
" />
</g>
<g style="fill:#434C5E; fill-opacity:0.0; 
stroke:#434C5E; stroke-width:60.000000; stroke-opacity:1; 
stroke-linecap:round; stroke-linejoin:round;">
<g transform="rotate(-90.000000 7500.000000 12800.000000)">
<text x="7500.000000" y="12957.480315"
textLength="1814.763780" font-size="419.921260" lengthAdjust="spacingAndGlyphs"
text-anchor="start" opacity="0">/RESET</text>
</g>
<g class="stroked-text"><desc>/RESET</desc>
<path d="M7312 12470
L7717 12740
" />
<path d="M7642 12185
L7492 12290
" />
<path d="M7642 12365
L7327 12365
L7327 12245
L7342 12215
L7357 12200
L7387 12185
L7432 12185
L7462 12200
L7477 12215
L7492 12245
L7492 12365
" />
<path d="M7477 12050
L7477 11945
" />
<path d="M7642 11900
L7642 12050
L7327 12050
L7327 11900
" />
<path d="M7627 11780
L7642 11735
L7642 11660
L7627 11630
L7612 11615
L7582 11600
L7552 11600
L7522 11615
L7507 11630
L7492 11660
L7477 11720
L7462 11750
L7447 11765
L7417 11780
L7387 11780
L7357 11765
L7342 11750
L7327 11720
L7327 11645
L7342 11600
" />
<path d="M7477 11465
L7477 11360
" />
<path d="M7642 11315
L7642 11465
L7327 11465
L7327 11315
" />
<path d="M7327 11225
L7327 11045
" />
<path d="M7642 11135
L7327 11135
" />
</g></g>
<g style="fill:#4C566A; fill-opacity:0.0; 
stroke:#4C566A; stroke-width:60.000000; stroke-opacity:1; 
stroke-linecap:round; stroke-linejoin:round;">
<path d="M8000 13000
L8000 14000
" />
</g>
<g style="fill:#434C5E; fill-opacity:0.0; 
stroke:#434C5E; stroke-width:60.000000; stroke-opacity:1; 
stroke-linecap:round; stroke-linejoin:round;">
<g transform="rotate(-90.000000 8000.000000 12800.000000)">
<text x="8000.000000" y="12957.480315"
textLength="1079.881890" font-size="419.921260" lengthAdjust="spacingAndGlyphs"
text-anchor="start" opacity="0">3.3V</text>
</g>
<g class="stroked-text"><desc>3.3V</desc>
<path d="M7827 12725
L7827 12530
L7947 12635
L7947 12590
L7962 12560
L7977 12545
L8007 12530
L8082 12530
L8112 12545
L8127 12560
L8142 12590
L8142 12680
L8127 12710
L8112 12725
" />
<path d="M8112 12395
L8127 12380
L8142 12395
L8127 12410
L8112 12395
L8142 12395
" />
<path d="M7827 12275
L7827 12080
L7947 12185
L7947 12140
L7962 12110
L7977 12095
L8007 12080
L8082 12080
L8112 12095
L8127 12110
L8142 12140
L8142 12230
L8127 12260
L8112 12275
" />
<path d="M7827 11990
L8142 11885
L7827 11780
" />
</g></g>
<g style="fill:#4C566A; fill-opacity:0.0; 
stroke:#4C566A; stroke-width:60.000000; stroke-opacity:1; 
stroke-linecap:round; stroke-linejoin:round;">
<path d="M8500 13000
L8500 14000
" />
</g>
<g style="fill:#434C5E; fill-opacity:0.0; 
stroke:#434C5E; stroke-width:60.000000; stroke-opacity:1; 
stroke-linecap:round; stroke-linejoin:round;">
<g transform="rotate(-90.000000 8500.000000 12800.000000)">
<text x="8500.000000" y="12957.480315"
textLength="629.921260" font-size="419.921260" lengthAdjust="spacingAndGlyphs"
text-anchor="start" opacity="0">5V</text>
</g>
<g class="stroked-text"><desc>5V</desc>
<path d="M8327 12545
L8327 12695
L8477 12710
L8462 12695
L8447 12665
L8447 12590
L8462 12560
L8477 12545
L8507 12530
L8582 12530
L8612 12545
L8627 12560
L8642 12590
L8642 12665
L8627 12695
L8612 12710
" />
<path d="M8327 12440
L8642 12335
L8327 12230
" />
</g></g>
<g style="fill:#4C566A; fill-opacity:0.0; 
stroke:#4C566A; stroke-width:60.000000; stroke-opacity:1; 
stroke-linecap:round; stroke-linejoin:round;">
<path d="M11500 13000
L11500 14000
" />
</g>
<g style="fill:#434C5E; fill-opacity:0.0; 
stroke:#434C5E; stroke-width:60.000000; stroke-opacity:1; 
stroke-linecap:round; stroke-linejoin:round;">
<g transform="rotate(-90.000000 11500.000000 12800.000000)">
<text x="11500.000000" y="12957.480315"
textLength="629.921260" font-size="419.921260" lengthAdjust="spacingAndGlyphs"
text-anchor="start" opacity="0">A0</text>
</g>
<g class="stroked-text"><desc>A0</desc>
<path d="M11552 12710
L11552 12560
" />
<path d="M11642 12740
L11327 12635
L11642 12530
" />
<path d="M11327 12365
L11327 12335
L11342 12305
L11357 12290
L11387 12275
L11447 12260
L11522 12260
L11582 12275
L11612 12290
L11627 12305
L11642 12335
L11642 12365
L11627 12395
L11612 12410
L11582 12425
L11522 12440
L11447 12440
L11387 12425
L11357 12410
L11342 12395
L11327 12365
" />
</g></g>
<g style="fill:#4C566A; fill-opacity:0.0; 
stroke:#4C566A; stroke-width:60.000000; stroke-opacity:1; 
stroke-linecap:round; stroke-linejoin:round;">
<path d="M12000 13000
L12000 14000
" />
</g>
<g style="fill:#434C5E; fill-opacity:0.0; 
stroke:#434C5E; stroke-width:60.000000; stroke-opacity:1; 
stroke-linecap:round; stroke-linejoin:round;">
<g transform="rotate(-90.000000 12000.000000 12800.000000)">
<text x="12000.000000" y="12957.480315"
textLength="629.921260" font-size="419.921260" lengthAdjust="spacingAndGlyphs"
text-anchor="start" opacity="0">A1</text>
</g>
<g class="stroked-text"><desc>A1</desc>
<path d="M12052 12710
L12052 12560
" />
<path d="M12142 12740
L11827 12635
L12142 12530
" />
<path d="M12142 12260
L12142 12440
" />
<path d="M12142 12350
L11827 12350
L11872 12380
L11902 12410
L11917 12440
" />
</g></g>
<g style="fill:#4C566A; fill-opacity:0.0; 
stroke:#4C566A; stroke-width:60.000000; stroke-opacity:1; 
stroke-linecap:round; stroke-linejoin:round;">
<path d="M12500 13000
L12500 14000
" />
</g>
<g style="fill:#434C5E; fill-opacity:0.0; 
stroke:#434C5E; stroke-width:60.000000; stroke-opacity:1; 
stroke-linecap:round; stroke-linejoin:round;">
<g transform="rotate(-90.000000 12500.000000 12800.000000)">
<text x="12500.000000" y="12957.480315"
textLength="629.921260" font-size="419.921260" lengthAdjust="spacingAndGlyphs"
text-anchor="start" opacity="0">A2</text>
</g>
<g class="stroked-text"><desc>A2</desc>
<path d="M12552 12710
L12552 12560
" />
<path d="M12642 12740
L12327 12635
L12642 12530
" />
<path d="M12357 12440
L12342 12425
L12327 12395
L12327 12320
L12342 12290
L12357 12275
L12387 12260
L12417 12260
L12462 12275
L12642 12455
L12642 12260
" />
</g></g>
<g style="fill:#4C566A; fill-opacity:0.0; 
stroke:#4C566A; stroke-width:60.000000; stroke-opacity:1; 
stroke-linecap:round; stroke-linejoin:round;">
<path d="M13000 13000
L13000 14000
" />
</g>
<g style="fill:#434C5E; fill-opacity:0.0; 
stroke:#434C5E; stroke-width:60.000000; stroke-opacity:1; 
stroke-linecap:round; stroke-linejoin:round;">
<g transform="rotate(-90.000000 13000.000000 12800.000000)">
<text x="13000.000000" y="12957.480315"
textLength="629.921260" font-size="419.921260" lengthAdjust="spacingAndGlyphs"
text-anchor="start" opacity="0">A3</text>
</g>
<g class="stroked-text"><desc>A3</desc>
<path d="M13052 12710
L13052 12560
" />
<path d="M13142 12740
L12827 12635
L13142 12530
" />
<path d="M12827 12455
L12827 12260
L12947 12365
L12947 12320
L12962 12290
L12977 12275
L13007 12260
L13082 12260
L13112 12275
L13127 12290
L13142 12320
L13142 12410
L13127 12440
L13112 12455
" />
</g></g>
<g style="fill:#4C566A; fill-opacity:0.0; 
stroke:#4C566A; stroke-width:60.000000; stroke-opacity:1; 
stroke-linecap:round; stroke-linejoin:round;">
<path d="M13500 13000
L13500 14000
" />
</g>
<g style="fill:#434C5E; fill-opacity:0.0; 
stroke:#434C5E; stroke-width:60.000000; stroke-opacity:1; 
stroke-linecap:round; stroke-linejoin:round;">
<g transform="rotate(-90.000000 13500.000000 12800.000000)">
<text x="13500.000000" y="12957.480315"
textLength="629.921260" font-size="419.921260" lengthAdjust="spacingAndGlyphs"
text-anchor="start" opacity="0">A4</text>
</g>
<g class="stroked-text"><desc>A4</desc>
<path d="M13552 12710
L13552 12560
" />
<path d="M13642 12740
L13327 12635
L13642 12530
" />
<path d="M13432 12290
L13642 12290
" />
<path d="M13312 12365
L13537 12440
L13537 12245
" />
</g></g>
<g style="fill:#4C566A; fill-opacity:0.0; 
stroke:#4C566A; stroke-width:60.000000; stroke-opacity:1; 
stroke-linecap:round; stroke-linejoin:round;">
<path d="M14000 13000
L14000 14000
" />
</g>
<g style="fill:#434C5E; fill-opacity:0.0; 
stroke:#434C5E; stroke-width:60.000000; stroke-opacity:1; 
stroke-linecap:round; stroke-linejoin:round;">
<g transform="rotate(-90.000000 14000.000000 12800.000000)">
<text x="14000.000000" y="12957.480315"
textLength="629.921260" font-size="419.921260" lengthAdjust="spacingAndGlyphs"
text-anchor="start" opacity="0">A5</text>
</g>
<g class="stroked-text"><desc>A5</desc>
<path d="M14052 12710
L14052 12560
" />
<path d="M14142 12740
L13827 12635
L14142 12530
" />
<path d="M13827 12275
L13827 12425
L13977 12440
L13962 12425
L13947 12395
L13947 12320
L13962 12290
L13977 12275
L14007 12260
L14082 12260
L14112 12275
L14127 12290
L14142 12320
L14142 12395
L14127 12425
L14112 12440
" />
</g></g>
<g style="fill:#4C566A; fill-opacity:0.0; 
stroke:#4C566A; stroke-width:60.000000; stroke-opacity:1; 
stroke-linecap:round; stroke-linejoin:round;">
<path d="M6000 8000
L6000 7000
" />
</g>
<g style="fill:#434C5E; fill-opacity:0.0; 
stroke:#434C5E; stroke-width:60.000000; stroke-opacity:1; 
stroke-linecap:round; stroke-linejoin:round;">
<g transform="rotate(-90.000000 6000.000000 8200.000000)">
<text x="6000.000000" y="8357.480315"
textLength="1199.842520" font-size="419.921260" lengthAdjust="spacingAndGlyphs"
text-anchor="end" opacity="0">AREF</text>
</g>
<g class="stroked-text"><desc>AREF</desc>
<path d="M6052 9309
L6052 9159
" />
<path d="M6142 9339
L5827 9234
L6142 9129
" />
<path d="M6142 8844
L5992 8949
" />
<path d="M6142 9024
L5827 9024
L5827 8904
L5842 8874
L5857 8859
L5887 8844
L5932 8844
L5962 8859
L5977 8874
L5992 8904
L5992 9024
" />
<path d="M5977 8709
L5977 8604
" />
<path d="M6142 8559
L6142 8709
L5827 8709
L5827 8559
" />
<path d="M5977 8319
L5977 8424
" />
<path d="M6142 8424
L5827 8424
L5827 8274
" />
</g></g>
<g style="fill:#4C566A; fill-opacity:0.0; 
stroke:#4C566A; stroke-width:60.000000; stroke-opacity:1; 
stroke-linecap:round; stroke-linejoin:round;">
<path d="M14000 8000
L14000 7000
" />
</g>
<g style="fill:#434C5E; fill-opacity:0.0; 
stroke:#434C5E; stroke-width:60.000000; stroke-opacity:1; 
stroke-linecap:round; stroke-linejoin:round;">
<g transform="rotate(-90.000000 14000.000000 8200.000000)">
<text x="14000.000000" y="8357.480315"
textLength="674.921260" font-size="419.921260" lengthAdjust="spacingAndGlyphs"
text-anchor="end" opacity="0">D0</text>
</g>
<g class="stroked-text"><desc>D0</desc>
<path d="M14142 8769
L13827 8769
L13827 8694
L13842 8649
L13872 8619
L13902 8604
L13962 8589
L14007 8589
L14067 8604
L14097 8619
L14127 8649
L14142 8694
L14142 8769
" />
<path d="M13827 8394
L13827 8364
L13842 8334
L13857 8319
L13887 8304
L13947 8289
L14022 8289
L14082 8304
L14112 8319
L14127 8334
L14142 8364
L14142 8394
L14127 8424
L14112 8439
L14082 8454
L14022 8469
L13947 8469
L13887 8454
L13857 8439
L13842 8424
L13827 8394
" />
</g></g>
<g style="fill:#4C566A; fill-opacity:0.0; 
stroke:#4C566A; stroke-width:60.000000; stroke-opacity:1; 
stroke-linecap:round; stroke-linejoin:round;">
<path d="M13500 8000
L13500 7000
" />
</g>
<g style="fill:#434C5E; fill-opacity:0.0; 
stroke:#434C5E; stroke-width:60.000000; stroke-opacity:1; 
stroke-linecap:round; stroke-linejoin:round;">
<g transform="rotate(-90.000000 13500.000000 8200.000000)">
<text x="13500.000000" y="8357.480315"
textLength="674.921260" font-size="419.921260" lengthAdjust="spacingAndGlyphs"
text-anchor="end" opacity="0">D1</text>
</g>
<g class="stroked-text"><desc>D1</desc>
<path d="M13642 8769
L13327 8769
L13327 8694
L13342 8649
L13372 8619
L13402 8604
L13462 8589
L13507 8589
L13567 8604
L13597 8619
L13627 8649
L13642 8694
L13642 8769
" />
<path d="M13642 8289
L13642 8469
" />
<path d="M13642 8379
L13327 8379
L13372 8409
L13402 8439
L13417 8469
" />
</g></g>
<g style="fill:#4C566A; fill-opacity:0.0; 
stroke:#4C566A; stroke-width:60.000000; stroke-opacity:1; 
stroke-linecap:round; stroke-linejoin:round;">
<path d="M8500 8000
L8500 7000
" />
</g>
<g style="fill:#434C5E; fill-opacity:0.0; 
stroke:#434C5E; stroke-width:60.000000; stroke-opacity:1; 
stroke-linecap:round; stroke-linejoin:round;">
<g transform="rotate(-90.000000 8500.000000 8200.000000)">
<text x="8500.000000" y="8357.480315"
textLength="974.881890" font-size="419.921260" lengthAdjust="spacingAndGlyphs"
text-anchor="end" opacity="0">D10</text>
</g>
<g class="stroked-text"><desc>D10</desc>
<path d="M8642 9069
L8327 9069
L8327 8994
L8342 8949
L8372 8919
L8402 8904
L8462 8889
L8507 8889
L8567 8904
L8597 8919
L8627 8949
L8642 8994
L8642 9069
" />
<path d="M8642 8589
L8642 8769
" />
<path d="M8642 8679
L8327 8679
L8372 8709
L8402 8739
L8417 8769
" />
<path d="M8327 8394
L8327 8364
L8342 8334
L8357 8319
L8387 8304
L8447 8289
L8522 8289
L8582 8304
L8612 8319
L8627 8334
L8642 8364
L8642 8394
L8627 8424
L8612 8439
L8582 8454
L8522 8469
L8447 8469
L8387 8454
L8357 8439
L8342 8424
L8327 8394
" />
</g></g>
<g style="fill:#4C566A; fill-opacity:0.0; 
stroke:#4C566A; stroke-width:60.000000; stroke-opacity:1; 
stroke-linecap:round; stroke-linejoin:round;">
<path d="M8000 8000
L8000 7000
" />
</g>
<g style="fill:#434C5E; fill-opacity:0.0; 
stroke:#434C5E; stroke-width:60.000000; stroke-opacity:1; 
stroke-linecap:round; stroke-linejoin:round;">
<g transform="rotate(-90.000000 8000.000000 8200.000000)">
<text x="8000.000000" y="8357.480315"
textLength="974.881890" font-size="419.921260" lengthAdjust="spacingAndGlyphs"
text-anchor="end" opacity="0">D11</text>
</g>
<g class="stroked-text"><desc>D11</desc>
<path d="M8142 9069
L7827 9069
L7827 8994
L7842 8949
L7872 8919
L7902 8904
L7962 8889
L8007 8889
L8067 8904
L8097 8919
L8127 8949
L8142 8994
L8142 9069
" />
<path d="M8142 8589
L8142 8769
" />
<path d="M8142 8679
L7827 8679
L7872 8709
L7902 8739
L7917 8769
" />
<path d="M8142 8289
L8142 8469
" />
<path d="M8142 8379
L7827 8379
L7872 8409
L7902 8439
L7917 8469
" />
</g></g>
<g style="fill:#4C566A; fill-opacity:0.0; 
stroke:#4C566A; stroke-width:60.000000; stroke-opacity:1; 
stroke-linecap:round; stroke-linejoin:round;">
<path d="M7500 8000
L7500 7000
" />
</g>
<g style="fill:#434C5E; fill-opacity:0.0; 
stroke:#434C5E; stroke-width:60.000000; stroke-opacity:1; 
stroke-linecap:round; stroke-linejoin:round;">
<g transform="rotate(-90.000000 7500.000000 8200.000000)">
<text x="7500.000000" y="8357.480315"
textLength="974.881890" font-size="419.921260" lengthAdjust="spacingAndGlyphs"
text-anchor="end" opacity="0">D12</text>
</g>
<g class="stroked-text"><desc>D12</desc>
<path d="M7642 9069
L7327 9069
L7327 8994
L7342 8949
L7372 8919
L7402 8904
L7462 8889
L7507 8889
L7567 8904
L7597 8919
L7627 8949
L7642 8994
L7642 9069
" />
<path d="M7642 8589
L7642 8769
" />
<path d="M7642 8679
L7327 8679
L7372 8709
L7402 8739
L7417 8769
" />
<path d="M7357 8469
L7342 8454
L7327 8424
L7327 8349
L7342 8319
L7357 8304
L7387 8289
L7417 8289
L7462 8304
L7642 8484
L7642 8289
" />
</g></g>
<g style="fill:#4C566A; fill-opacity:0.0; 
stroke:#4C566A; stroke-width:60.000000; stroke-opacity:1; 
stroke-linecap:round; stroke-linejoin:round;">
<path d="M7000 8000
L7000 7000
" />
</g>
<g style="fill:#434C5E; fill-opacity:0.0; 
stroke:#434C5E; stroke-width:60.000000; stroke-opacity:1; 
stroke-linecap:round; stroke-linejoin:round;">
<g transform="rotate(-90.000000 7000.000000 8200.000000)">
<text x="7000.000000" y="8357.480315"
textLength="974.881890" font-size="419.921260" lengthAdjust="spacingAndGlyphs"
text-anchor="end" opacity="0">D13</text>
</g>
<g class="stroked-text"><desc>D13</desc>
<path d="M7142 9069
L6827 9069
L6827 8994
L6842 8949
L6872 8919
L6902 8904
L6962 8889
L7007 8889
L7067 8904
L7097 8919
L7127 8949
L7142 8994
L7142 9069
" />
<path d="M7142 8589
L7142 8769
" />
<path d="M7142 8679
L6827 8679
L6872 8709
L6902 8739
L6917 8769
" />
<path d="M6827 8484
L6827 8289
L6947 8394
L6947 8349
L6962 8319
L6977 8304
L7007 8289
L7082 8289
L7112 8304
L7127 8319
L7142 8349
L7142 8439
L7127 8469
L7112 8484
" />
</g></g>
<g style="fill:#4C566A; fill-opacity:0.0; 
stroke:#4C566A; stroke-width:60.000000; stroke-opacity:1; 
stroke-linecap:round; stroke-linejoin:round;">
<path d="M13000 8000
L13000 7000
" />
</g>
<g style="fill:#434C5E; fill-opacity:0.0; 
stroke:#434C5E; stroke-width:60.000000; stroke-opacity:1; 
stroke-linecap:round; stroke-linejoin:round;">
<g transform="rotate(-90.000000 13000.000000 8200.000000)">
<text x="13000.000000" y="8357.480315"
textLength="674.921260" font-size="419.921260" lengthAdjust="spacingAndGlyphs"
text-anchor="end" opacity="0">D2</text>
</g>
<g class="stroked-text"><desc>D2</desc>
<path d="M13142 8769
L12827 8769
L12827 8694
L12842 8649
L12872 8619
L12902 8604
L12962 8589
L13007 8589
L13067 8604
L13097 8619
L13127 8649
L13142 8694
L13142 8769
" />
<path d="M12857 8469
L12842 8454
L12827 8424
L12827 8349
L12842 8319
L12857 8304
L12887 8289
L12917 8289
L12962 8304
L13142 8484
L13142 8289
" />
</g></g>
<g style="fill:#4C566A; fill-opacity:0.0; 
stroke:#4C566A; stroke-width:60.000000; stroke-opacity:1; 
stroke-linecap:round; stroke-linejoin:round;">
<path d="M12500 8000
L12500 7000
" />
</g>
<g style="fill:#434C5E; fill-opacity:0.0; 
stroke:#434C5E; stroke-width:60.000000; stroke-opacity:1; 
stroke-linecap:round; stroke-linejoin:round;">
<g transform="rotate(-90.000000 12500.000000 8200.000000)">
<text x="12500.000000" y="8357.480315"
textLength="674.921260" font-size="419.921260" lengthAdjust="spacingAndGlyphs"
text-anchor="end" opacity="0">D3</text>
</g>
<g class="stroked-text"><desc>D3</desc>
<path d="M12642 8769
L12327 8769
L12327 8694
L12342 8649
L12372 8619
L12402 8604
L12462 8589
L12507 8589
L12567 8604
L12597 8619
L12627 8649
L12642 8694
L12642 8769
" />
<path d="M12327 8484
L12327 8289
L12447 8394
L12447 8349
L12462 8319
L12477 8304
L12507 8289
L12582 8289
L12612 8304
L12627 8319
L12642 8349
L12642 8439
L12627 8469
L12612 8484
" />
</g></g>
<g style="fill:#4C566A; fill-opacity:0.0; 
stroke:#4C566A; stroke-width:60.000000; stroke-opacity:1; 
stroke-linecap:round; stroke-linejoin:round;">
<path d="M12000 8000
L12000 7000
" />
</g>
<g style="fill:#434C5E; fill-opacity:0.0; 
stroke:#434C5E; stroke-width:60.000000; stroke-opacity:1; 
stroke-linecap:round; stroke-linejoin:round;">
<g transform="rotate(-90.000000 12000.000000 8200.000000)">
<text x="12000.000000" y="8357.480315"
textLength="674.921260" font-size="419.921260" lengthAdjust="spacingAndGlyphs"
text-anchor="end" opacity="0">D4</text>
</g>
<g class="stroked-text"><desc>D4</desc>
<path d="M12142 8769
L11827 8769
L11827 8694
L11842 8649
L11872 8619
L11902 8604
L11962 8589
L12007 8589
L12067 8604
L12097 8619
L12127 8649
L12142 8694
L12142 8769
" />
<path d="M11932 8319
L12142 8319
" />
<path d="M11812 8394
L12037 8469
L12037 8274
" />
</g></g>
<g style="fill:#4C566A; fill-opacity:0.0; 
stroke:#4C566A; stroke-width:60.000000; stroke-opacity:1; 
stroke-linecap:round; stroke-linejoin:round;">
<path d="M11500 8000
L11500 7000
" />
</g>
<g style="fill:#434C5E; fill-opacity:0.0; 
stroke:#434C5E; stroke-width:60.000000; stroke-opacity:1; 
stroke-linecap:round; stroke-linejoin:round;">
<g transform="rotate(-90.000000 11500.000000 8200.000000)">
<text x="11500.000000" y="8357.480315"
textLength="674.921260" font-size="419.921260" lengthAdjust="spacingAndGlyphs"
text-anchor="end" opacity="0">D5</text>
</g>
<g class="stroked-text"><desc>D5</desc>
<path d="M11642 8769
L11327 8769
L11327 8694
L11342 8649
L11372 8619
L11402 8604
L11462 8589
L11507 8589
L11567 8604
L11597 8619
L11627 8649
L11642 8694
L11642 8769
" />
<path d="M11327 8304
L11327 8454
L11477 8469
L11462 8454
L11447 8424
L11447 8349
L11462 8319
L11477 8304
L11507 8289
L11582 8289
L11612 8304
L11627 8319
L11642 8349
L11642 8424
L11627 8454
L11612 8469
" />
</g></g>
<g style="fill:#4C566A; fill-opacity:0.0; 
stroke:#4C566A; stroke-width:60.000000; stroke-opacity:1; 
stroke-linecap:round; stroke-linejoin:round;">
<path d="M11000 8000
L11000 7000
" />
</g>
<g style="fill:#434C5E; fill-opacity:0.0; 
stroke:#434C5E; stroke-width:60.000000; stroke-opacity:1; 
stroke-linecap:round; stroke-linejoin:round;">
<g transform="rotate(-90.000000 11000.000000 8200.000000)">
<text x="11000.000000" y="8357.480315"
textLength="674.921260" font-size="419.921260" lengthAdjust="spacingAndGlyphs"
text-anchor="end" opacity="0">D6</text>
</g>
<g class="stroked-text"><desc>D6</desc>
<path d="M11142 8769
L10827 8769
L10827 8694
L10842 8649
L10872 8619
L10902 8604
L10962 8589
L11007 8589
L11067 8604
L11097 8619
L11127 8649
L11142 8694
L11142 8769
" />
<path d="M10827 8319
L10827 8379
L10842 8409
L10857 8424
L10902 8454
L10962 8469
L11082 8469
L11112 8454
L11127 8439
L11142 8409
L11142 8349
L11127 8319
L11112 8304
L11082 8289
L11007 8289
L10977 8304
L10962 8319
L10947 8349
L10947 8409
L10962 8439
L10977 8454
L11007 8469
" />
</g></g>
<g style="fill:#4C566A; fill-opacity:0.0; 
stroke:#4C566A; stroke-width:60.000000; stroke-opacity:1; 
stroke-linecap:round; stroke-linejoin:round;">
<path d="M10500 8000
L10500 7000
" />
</g>
<g style="fill:#434C5E; fill-opacity:0.0; 
stroke:#434C5E; stroke-width:60.000000; stroke-opacity:1; 
stroke-linecap:round; stroke-linejoin:round;">
<g transform="rotate(-90.000000 10500.000000 8200.000000)">
<text x="10500.000000" y="8357.480315"
textLength="674.921260" font-size="419.921260" lengthAdjust="spacingAndGlyphs"
text-anchor="end" opacity="0">D7</text>
</g>
<g class="stroked-text"><desc>D7</desc>
<path d="M10642 8769
L10327 8769
L10327 8694
L10342 8649
L10372 8619
L10402 8604
L10462 8589
L10507 8589
L10567 8604
L10597 8619
L10627 8649
L10642 8694
L10642 8769
" />
<path d="M10327 8484
L10327 8274
L10642 8409
" />
</g></g>
<g style="fill:#4C566A; fill-opacity:0.0; 
stroke:#4C566A; stroke-width:60.000000; stroke-opacity:1; 
stroke-linecap:round; stroke-linejoin:round;">
<path d="M9500 8000
L9500 7000
" />
</g>
<g style="fill:#434C5E; fill-opacity:0.0; 
stroke:#434C5E; stroke-width:60.000000; stroke-opacity:1; 
stroke-linecap:round; stroke-linejoin:round;">
<g transform="rotate(-90.000000 9500.000000 8200.000000)">
<text x="9500.000000" y="8357.480315"
textLength="674.921260" font-size="419.921260" lengthAdjust="spacingAndGlyphs"
text-anchor="end" opacity="0">D8</text>
</g>
<g class="stroked-text"><desc>D8</desc>
<path d="M9642 8769
L9327 8769
L9327 8694
L9342 8649
L9372 8619
L9402 8604
L9462 8589
L9507 8589
L9567 8604
L9597 8619
L9627 8649
L9642 8694
L9642 8769
" />
<path d="M9462 8409
L9447 8439
L9432 8454
L9402 8469
L9387 8469
L9357 8454
L9342 8439
L9327 8409
L9327 8349
L9342 8319
L9357 8304
L9387 8289
L9402 8289
L9432 8304
L9447 8319
L9462 8349
L9462 8409
L9477 8439
L9492 8454
L9522 8469
L9582 8469
L9612 8454
L9627 8439
L9642 8409
L9642 8349
L9627 8319
L9612 8304
L9582 8289
L9522 8289
L9492 8304
L9477 8319
L9462 8349
" />
</g></g>
<g style="fill:#4C566A; fill-opacity:0.0; 
stroke:#4C566A; stroke-width:60.000000; stroke-opacity:1; 
stroke-linecap:round; stroke-linejoin:round;">
<path d="M9000 8000
L9000 7000
" />
</g>
<g style="fill:#434C5E; fill-opacity:0.0; 
stroke:#434C5E; stroke-width:60.000000; stroke-opacity:1; 
stroke-linecap:round; stroke-linejoin:round;">
<g transform="rotate(-90.000000 9000.000000 8200.000000)">
<text x="9000.000000" y="8357.480315"
textLength="674.921260" font-size="419.921260" lengthAdjust="spacingAndGlyphs"
text-anchor="end" opacity="0">D9</text>
</g>
<g class="stroked-text"><desc>D9</desc>
<path d="M9142 8769
L8827 8769
L8827 8694
L8842 8649
L8872 8619
L8902 8604
L8962 8589
L9007 8589
L9067 8604
L9097 8619
L9127 8649
L9142 8694
L9142 8769
" />
<path d="M9142 8439
L9142 8379
L9127 8349
L9112 8334
L9067 8304
L9007 8289
L8887 8289
L8857 8304
L8842 8319
L8827 8349
L8827 8409
L8842 8439
L8857 8454
L8887 8469
L8962 8469
L8992 8454
L9007 8439
L9022 8409
L9022 8349
L9007 8319
L8992 8304
L8962 8289
" />
</g></g>
<g style="fill:#4C566A; fill-opacity:0.0; 
stroke:#4C566A; stroke-width:60.000000; stroke-opacity:1; 
stroke-linecap:round; stroke-linejoin:round;">
<path d="M6500 8000
L6500 7000
" />
</g>
<g style="fill:#434C5E; fill-opacity:0.0; 
stroke:#434C5E; stroke-width:60.000000; stroke-opacity:1; 
stroke-linecap:round; stroke-linejoin:round;">
<g transform="rotate(-90.000000 6500.000000 8200.000000)">
<text x="6500.000000" y="8357.480315"
textLength="1019.881890" font-size="419.921260" lengthAdjust="spacingAndGlyphs"
text-anchor="end" opacity="0">GND</text>
</g>
<g class="stroked-text"><desc>GND</desc>
<path d="M6342 8949
L6327 8979
L6327 9024
L6342 9069
L6372 9099
L6402 9114
L6462 9129
L6507 9129
L6567 9114
L6597 9099
L6627 9069
L6642 9024
L6642 8994
L6627 8949
L6612 8934
L6507 8934
L6507 8994
" />
<path d="M6642 8799
L6327 8799
L6642 8619
L6327 8619
" />
<path d="M6642 8469
L6327 8469
L6327 8394
L6342 8349
L6372 8319
L6402 8304
L6462 8289
L6507 8289
L6567 8304
L6597 8319
L6627 8349
L6642 8394
L6642 8469
" />
</g></g>
<g style="fill:#4C566A; fill-opacity:0.0; 
stroke:#4C566A; stroke-width:60.000000; stroke-opacity:1; 
stroke-linecap:round; stroke-linejoin:round;">
<path d="M9500 13000
L9500 14000
" />
</g>
<g style="fill:#434C5E; fill-opacity:0.0; 
stroke:#434C5E; stroke-width:60.000000; stroke-opacity:1; 
stroke-linecap:round; stroke-linejoin:round;">
<g transform="rotate(-90.000000 9500.000000 12800.000000)">
<text x="9500.000000" y="12957.480315"
textLength="1319.842520" font-size="419.921260" lengthAdjust="spacingAndGlyphs"
text-anchor="start" opacity="0">GND1</text>
</g>
<g class="stroked-text"><desc>GND1</desc>
<path d="M9342 12530
L9327 12560
L9327 12605
L9342 12650
L9372 12680
L9402 12695
L9462 12710
L9507 12710
L9567 12695
L9597 12680
L9627 12650
L9642 12605
L9642 12575
L9627 12530
L9612 12515
L9507 12515
L9507 12575
" />
<path d="M9642 12380
L9327 12380
L9642 12200
L9327 12200
" />
<path d="M9642 12050
L9327 12050
L9327 11975
L9342 11930
L9372 11900
L9402 11885
L9462 11870
L9507 11870
L9567 11885
L9597 11900
L9627 11930
L9642 11975
L9642 12050
" />
<path d="M9642 11570
L9642 11750
" />
<path d="M9642 11660
L9327 11660
L9372 11690
L9402 11720
L9417 11750
" />
</g></g>
<g style="fill:#4C566A; fill-opacity:0.0; 
stroke:#4C566A; stroke-width:60.000000; stroke-opacity:1; 
stroke-linecap:round; stroke-linejoin:round;">
<path d="M9000 13000
L9000 14000
" />
</g>
<g style="fill:#434C5E; fill-opacity:0.0; 
stroke:#434C5E; stroke-width:60.000000; stroke-opacity:1; 
stroke-linecap:round; stroke-linejoin:round;">
<g transform="rotate(-90.000000 9000.000000 12800.000000)">
<text x="9000.000000" y="12957.480315"
textLength="1319.842520" font-size="419.921260" lengthAdjust="spacingAndGlyphs"
text-anchor="start" opacity="0">GND2</text>
</g>
<g class="stroked-text"><desc>GND2</desc>
<path d="M8842 12530
L8827 12560
L8827 12605
L8842 12650
L8872 12680
L8902 12695
L8962 12710
L9007 12710
L9067 12695
L9097 12680
L9127 12650
L9142 12605
L9142 12575
L9127 12530
L9112 12515
L9007 12515
L9007 12575
" />
<path d="M9142 12380
L8827 12380
L9142 12200
L8827 12200
" />
<path d="M9142 12050
L8827 12050
L8827 11975
L8842 11930
L8872 11900
L8902 11885
L8962 11870
L9007 11870
L9067 11885
L9097 11900
L9127 11930
L9142 11975
L9142 12050
" />
<path d="M8857 11750
L8842 11735
L8827 11705
L8827 11630
L8842 11600
L8857 11585
L8887 11570
L8917 11570
L8962 11585
L9142 11765
L9142 11570
" />
</g></g>
<g style="fill:#4C566A; fill-opacity:0.0; 
stroke:#4C566A; stroke-width:60.000000; stroke-opacity:1; 
stroke-linecap:round; stroke-linejoin:round;">
<path d="M10000 13000
L10000 14000
" />
</g>
<g style="fill:#434C5E; fill-opacity:0.0; 
stroke:#434C5E; stroke-width:60.000000; stroke-opacity:1; 
stroke-linecap:round; stroke-linejoin:round;">
<g transform="rotate(-90.000000 10000.000000 12800.000000)">
<text x="10000.000000" y="12957.480315"
textLength="809.921260" font-size="419.921260" lengthAdjust="spacingAndGlyphs"
text-anchor="start" opacity="0">VIN</text>
</g>
<g class="stroked-text"><desc>VIN</desc>
<path d="M9827 12740
L10142 12635
L9827 12530
" />
<path d="M10142 12425
L9827 12425
" />
<path d="M10142 12275
L9827 12275
L10142 12095
L9827 12095
" />
</g></g>
<g style="fill:#5E81AC; fill-opacity:0.0; 
stroke:#5E81AC; stroke-width:60.000000; stroke-opacity:1; 
stroke-linecap:round; stroke-linejoin:round;">
<text x="11174.055118" y="11393.700787"
textLength="2309.724409" font-size="1049.842520" lengthAdjust="spacingAndGlyphs"
text-anchor="middle" opacity="0">Uno</text>
<g class="stroked-text"><desc>Uno</desc>
<path d="M10236 10568
L10236 11206
L10274 11281
L10311 11318
L10386 11356
L10536 11356
L10611 11318
L10649 11281
L10686 11206
L10686 10568
" />
<path d="M11061 10831
L11061 11356
" />
<path d="M11061 10906
L11099 10868
L11174 10831
L11286 10831
L11361 10868
L11399 10943
L11399 11356
" />
<path d="M11886 11356
L11811 11318
L11773 11281
L11736 11206
L11736 10981
L11773 10906
L11811 10868
L11886 10831
L11998 10831
L12073 10868
L12111 10906
L12148 10981
L12148 11206
L12111 11281
L12073 11318
L11998 11356
L11886 11356
" />
</g></g>
</g>
<g style="fill:#5E81AC; fill-opacity:0.0; 
stroke:#5E81AC; stroke-width:60.000000; stroke-opacity:1; 
stroke-linecap:round; stroke-linejoin:round;">
</g>
<g style="fill:#A3BE8C; fill-opacity:0.0; 
stroke:#A3BE8C; stroke-width:60.000000; stroke-opacity:1; 
stroke-linecap:round; stroke-linejoin:round;">
<path d="M28000 15500
L8500 15500
" />
<path d="M29500 14500
L11500 14500
" />
<path d="M31000 15000
L12000 15000
" />
<path d="M8500 15500
L8500 14000
" />
<path d="M26500 14000
L26500 16500
" />
<path d="M28000 14000
L28000 15500
" />
<path d="M31000 14000
L31000 15000
" />
<path d="M32500 14000
L34000 14000
" />
<path d="M34000 14000
L34000 5500
" />
<path d="M29500 14000
L29500 14500
" />
<path d="M34000 5500
L13000 5500
" />
<path d="M13000 5500
L13000 7000
" />
<path d="M12000 15000
L12000 14000
" />
<path d="M11500 14500
L11500 14000
" />
<path d="M10500 5000
L22000 5000
" />
<path d="M22000 18000
L22000 19000
" />
<path d="M10500 7000
L10500 5000
" />
<path d="M16000 19000
L19000 19000
" />
<path d="M22000 5000
L22000 16000
" />
</g> 
</svg>
